mtllib material.mtl
v 0.000000 0.730000 0.560000
v 0.000000 0.690000 0.440000
v 0.000000 0.690000 0.560000
v 0.000000 0.570000 0.440000
v 0.000000 0.730000 0.440000
v 0.000000 0.570000 0.400000
v 0.000000 0.570000 0.560000
v 0.000000 0.690000 0.400000
v 0.000000 0.530000 0.440000
v 0.000000 0.690000 0.600000
v 0.000000 0.530000 0.560000
v 0.000000 0.570000 0.600000
v 1.000000 0.730000 0.560000
v 1.000000 0.690000 0.440000
v 1.000000 0.690000 0.560000
v 1.000000 0.570000 0.440000
v 1.000000 0.730000 0.440000
v 1.000000 0.570000 0.400000
v 1.000000 0.570000 0.560000
v 1.000000 0.690000 0.400000
v 1.000000 0.530000 0.440000
v 1.000000 0.690000 0.600000
v 1.000000 0.530000 0.560000
v 1.000000 0.570000 0.600000
vt 0.125177 0.750088
vt 0.249912 0.874823
vt 0.249912 0.750088
vt 0.312588 0.625177
vt 0.312588 0.812412
vt 0.499823 0.812412
vt 0.125088 0.750177
vt 0.125088 0.874912
vt 0.249823 0.874912
vn -1.000000 0.000000 0.000000
vn 1.000000 0.000000 0.000000
vn 0.000000 -1.000000 0.000000
vn 0.000000 1.000000 0.000000
vn 0.000000 0.000000 1.000000
vn 0.000000 0.000000 -1.000000
usemtl material

f 1/1/1 2/2/1 3/3/1
f 3/4/1 2/5/1 4/6/1
f 1/7/1 5/8/1 2/9/1
f 2/1/1 6/2/1 4/3/1
f 3/6/1 4/4/1 7/5/1
f 2/7/1 8/8/1 6/9/1
f 7/7/1 4/8/1 9/9/1
f 10/7/1 3/8/1 7/9/1
f 7/1/1 9/2/1 11/3/1
f 10/1/1 7/2/1 12/3/1
f 14/2/2 13/1/2 15/3/2
f 14/5/2 15/4/2 16/6/2
f 17/8/2 13/7/2 14/9/2
f 18/2/2 14/1/2 16/3/2
f 16/4/2 15/6/2 19/5/2
f 20/8/2 14/7/2 18/9/2
f 16/8/2 19/7/2 21/9/2
f 15/8/2 22/7/2 19/9/2
f 21/2/2 19/1/2 23/3/2
f 19/2/2 22/1/2 24/3/2
f 9/2/3 23/1/3 11/3/3
f 21/8/3 23/7/3 9/9/3
f 7/2/3 24/1/3 12/3/3
f 19/8/3 24/7/3 7/9/3
f 6/2/3 16/1/3 4/3/3
f 18/8/3 16/7/3 6/9/3
f 13/1/4 5/2/4 1/3/4
f 13/7/4 17/8/4 5/9/4
f 22/1/4 3/2/4 10/3/4
f 22/7/4 15/8/4 3/9/4
f 14/1/4 8/2/4 2/3/4
f 14/7/4 20/8/4 8/9/4
f 23/1/5 7/2/5 11/3/5
f 23/7/5 19/8/5 7/9/5
f 15/1/5 1/2/5 3/3/5
f 15/7/5 13/8/5 1/9/5
f 24/1/5 10/2/5 12/3/5
f 24/7/5 22/8/5 10/9/5
f 8/2/6 18/1/6 6/3/6
f 20/8/6 18/7/6 8/9/6
f 4/2/6 21/1/6 9/3/6
f 16/8/6 21/7/6 4/9/6
f 5/2/6 14/1/6 2/3/6
f 17/8/6 14/7/6 5/9/6
