
mtllib material.mtl
v 0.920000 0.980000 0.920000
v 0.920000 0.900000 0.080000
v 0.920000 0.900000 0.920000
v 0.920000 0.980000 0.080000
v 0.080000 0.420000 0.920000
v 0.080000 0.020000 0.680000
v 0.080000 0.020000 0.920000
v 0.080000 0.420000 0.680000
v 0.080000 0.420000 0.320000
v 0.080000 0.020000 0.080000
v 0.080000 0.020000 0.320000
v 0.080000 0.420000 0.080000
v 0.680000 0.420000 0.920000
v 0.680000 0.020000 0.680000
v 0.680000 0.020000 0.920000
v 0.680000 0.420000 0.680000
v 0.680000 0.420000 0.320000
v 0.680000 0.020000 0.080000
v 0.680000 0.020000 0.320000
v 0.680000 0.420000 0.080000
v 0.040000 0.460000 0.960000
v 0.040000 0.420000 0.040000
v 0.040000 0.420000 0.960000
v 0.040000 0.460000 0.040000
v 0.000000 0.980000 1.000000
v 0.000000 0.460000 0.000000
v 0.000000 0.460000 1.000000
v 0.000000 0.980000 0.000000
v 1.000000 0.980000 1.000000
v 1.000000 0.460000 0.000000
v 1.000000 0.460000 1.000000
v 1.000000 0.980000 0.000000
v 0.320000 0.420000 0.920000
v 0.320000 0.020000 0.680000
v 0.320000 0.020000 0.920000
v 0.320000 0.420000 0.680000
v 0.320000 0.420000 0.320000
v 0.320000 0.020000 0.080000
v 0.320000 0.020000 0.320000
v 0.320000 0.420000 0.080000
v 0.960000 0.460000 0.960000
v 0.960000 0.420000 0.040000
v 0.960000 0.420000 0.960000
v 0.960000 0.460000 0.040000
v 0.920000 0.420000 0.920000
v 0.920000 0.020000 0.680000
v 0.920000 0.020000 0.920000
v 0.920000 0.420000 0.680000
v 0.920000 0.420000 0.320000
v 0.920000 0.020000 0.080000
v 0.920000 0.020000 0.320000
v 0.920000 0.420000 0.080000
v 0.080000 0.980000 0.920000
v 0.080000 0.900000 0.080000
v 0.080000 0.900000 0.920000
v 0.080000 0.980000 0.080000
vt 0.000088 0.999912
vt 0.124823 0.999912
vt 0.000088 0.875177
vt 0.125088 0.999912
vt 0.249823 0.999912
vt 0.125088 0.875177
vt 0.250088 0.999912
vt 0.374823 0.999912
vt 0.250088 0.875177
vn -1.000000 0.000000 0.000000
vn 1.000000 0.000000 0.000000
vn 0.000000 -1.000000 -0.000000
vn 0.000000 1.000000 0.000000
vn 0.000000 0.000000 1.000000
vn 0.000000 0.000000 -1.000000
usemtl material
f 1/1/1 2/2/1 3/3/1
f 1/1/1 4/2/1 2/3/1
f 5/4/1 6/5/1 7/6/1
f 5/4/1 8/5/1 6/6/1
f 9/4/1 10/5/1 11/6/1
f 9/4/1 12/5/1 10/6/1
f 13/4/1 14/5/1 15/6/1
f 13/4/1 16/5/1 14/6/1
f 17/4/1 18/5/1 19/6/1
f 17/4/1 20/5/1 18/6/1
f 21/4/1 22/5/1 23/6/1
f 21/4/1 24/5/1 22/6/1
f 25/1/1 26/2/1 27/3/1
f 25/1/1 28/2/1 26/3/1
f 30/2/2 29/1/2 31/3/2
f 32/2/2 29/1/2 30/3/2
f 34/5/2 33/4/2 35/6/2
f 36/5/2 33/4/2 34/6/2
f 38/5/2 37/4/2 39/6/2
f 40/5/2 37/4/2 38/6/2
f 42/5/2 41/4/2 43/6/2
f 44/5/2 41/4/2 42/6/2
f 46/5/2 45/4/2 47/6/2
f 48/5/2 45/4/2 46/6/2
f 50/5/2 49/4/2 51/6/2
f 52/5/2 49/4/2 50/6/2
f 54/2/2 53/1/2 55/3/2
f 56/2/2 53/1/2 54/3/2
f 14/5/3 47/4/3 15/6/3
f 46/5/3 47/4/3 14/6/3
f 18/5/3 51/4/3 19/6/3
f 50/5/3 51/4/3 18/6/3
f 10/5/3 39/4/3 11/6/3
f 38/5/3 39/4/3 10/6/3
f 6/5/3 35/4/3 7/6/3
f 34/5/3 35/4/3 6/6/3
f 41/2/3 31/1/3 27/3/3
f 21/2/3 41/1/3 27/3/3
f 30/2/3 31/1/3 41/3/3
f 26/2/3 21/1/3 27/3/3
f 44/2/3 30/1/3 41/3/3
f 24/2/3 21/1/3 26/3/3
f 30/2/3 44/1/3 26/3/3
f 44/2/3 24/1/3 26/3/3
f 43/5/3 23/4/3 13/6/3
f 45/5/3 43/4/3 13/6/3
f 33/5/3 13/4/3 23/6/3
f 43/5/3 45/4/3 48/6/3
f 5/5/3 33/4/3 23/6/3
f 36/5/3 13/4/3 33/6/3
f 43/5/3 48/4/3 49/6/3
f 5/5/3 23/4/3 8/6/3
f 16/5/3 13/4/3 36/6/3
f 42/5/3 43/4/3 49/6/3
f 49/5/3 48/4/3 17/6/3
f 23/5/3 9/4/3 8/6/3
f 37/5/3 16/4/3 36/6/3
f 52/5/3 42/4/3 49/6/3
f 17/5/3 48/4/3 16/6/3
f 9/5/3 36/4/3 8/6/3
f 22/5/3 9/4/3 23/6/3
f 37/5/3 36/4/3 9/6/3
f 17/5/3 16/4/3 37/6/3
f 52/5/3 20/4/3 42/6/3
f 12/5/3 9/4/3 22/6/3
f 40/5/3 17/4/3 37/6/3
f 20/5/3 22/4/3 42/6/3
f 40/5/3 12/4/3 22/6/3
f 20/5/3 17/4/3 40/6/3
f 20/5/3 40/4/3 22/6/3
f 29/1/4 1/2/4 25/3/4
f 1/1/4 53/2/4 25/3/4
f 29/1/4 32/2/4 1/3/4
f 53/1/4 28/2/4 25/3/4
f 32/1/4 4/2/4 1/3/4
f 53/1/4 56/2/4 28/3/4
f 4/1/4 32/2/4 28/3/4
f 56/1/4 4/2/4 28/3/4
f 3/7/4 54/8/4 55/9/4
f 3/7/4 2/8/4 54/9/4
f 2/1/5 56/2/5 54/3/5
f 2/1/5 4/2/5 56/3/5
f 47/4/5 13/5/5 15/6/5
f 47/4/5 45/5/5 13/6/5
f 35/4/5 5/5/5 7/6/5
f 35/4/5 33/5/5 5/6/5
f 43/4/5 21/5/5 23/6/5
f 43/4/5 41/5/5 21/6/5
f 51/4/5 17/5/5 19/6/5
f 51/4/5 49/5/5 17/6/5
f 39/4/5 9/5/5 11/6/5
f 39/4/5 37/5/5 9/6/5
f 31/1/5 25/2/5 27/3/5
f 31/1/5 29/2/5 25/3/5
f 28/2/6 30/1/6 26/3/6
f 32/2/6 30/1/6 28/3/6
f 16/5/6 46/4/6 14/6/6
f 48/5/6 46/4/6 16/6/6
f 8/5/6 34/4/6 6/6/6
f 36/5/6 34/4/6 8/6/6
f 24/5/6 42/4/6 22/6/6
f 44/5/6 42/4/6 24/6/6
f 20/5/6 50/4/6 18/6/6
f 52/5/6 50/4/6 20/6/6
f 12/5/6 38/4/6 10/6/6
f 40/5/6 38/4/6 12/6/6
f 53/2/6 3/1/6 55/3/6
f 1/2/6 3/1/6 53/3/6
