mtllib material.mtl
v 0.040000 1.000000 1.000000
v 0.040000 0.960000 0.200000
v 0.040000 0.960000 1.000000
v 0.040000 1.000000 0.200000
v 0.040000 0.040000 1.000000
v 0.040000 0.000000 0.200000
v 0.040000 0.000000 1.000000
v 0.040000 0.040000 0.200000
v 0.000000 0.960000 1.000000
v 0.000000 0.040000 0.200000
v 0.000000 0.040000 1.000000
v 0.000000 0.960000 0.200000
v 1.000000 0.960000 1.000000
v 1.000000 0.040000 0.200000
v 1.000000 0.040000 1.000000
v 1.000000 0.960000 0.200000
v 0.960000 1.000000 1.000000
v 0.960000 0.960000 0.200000
v 0.960000 0.960000 1.000000
v 0.960000 1.000000 0.200000
v 0.960000 0.040000 1.000000
v 0.960000 0.000000 0.200000
v 0.960000 0.000000 1.000000
v 0.960000 0.040000 0.200000
vt 0.156294 0.281272
vt 0.187478 0.312456
vt 0.187478 0.281272
vt 0.156272 0.312478
vt 0.874978 0.906206
vt 0.874978 0.281272
vt 0.031272 0.343794
vt 0.031272 0.968728
vt 0.749956 0.968728
vn -1.000000 0.000000 0.000000
vn 1.000000 0.000000 0.000000
vn 0.000000 -1.000000 -0.000000
vn 0.000000 1.000000 0.000000
vn 0.000000 -0.000000 1.000000
vn 0.000000 0.000000 -1.000000
usemtl material
f 1/1/1 2/2/1 3/3/1
f 1/1/1 4/4/1 2/2/1
f 5/1/1 6/2/1 7/3/1
f 5/1/1 8/4/1 6/2/1
f 9/1/1 10/5/1 11/6/1
f 9/7/1 12/8/1 10/9/1
f 14/5/2 13/1/2 15/6/2
f 16/8/2 13/7/2 14/9/2
f 18/2/2 17/1/2 19/3/2
f 20/4/2 17/1/2 18/2/2
f 22/2/2 21/1/2 23/3/2
f 24/4/2 21/1/2 22/2/2
f 6/2/3 23/1/3 7/3/3
f 22/4/3 23/1/3 6/2/3
f 24/2/3 15/1/3 21/3/3
f 14/4/3 15/1/3 24/2/3
f 10/2/3 5/1/3 11/3/3
f 8/4/3 5/1/3 10/2/3
f 13/1/4 18/2/4 19/3/4
f 13/1/4 16/4/4 18/2/4
f 3/1/4 12/2/4 9/3/4
f 3/1/4 2/4/4 12/2/4
f 17/1/4 4/2/4 1/3/4
f 17/1/4 20/4/4 4/2/4
f 15/1/5 19/2/5 21/3/5
f 21/1/5 19/4/5 3/2/5
f 15/1/5 13/4/5 19/2/5
f 19/1/5 1/2/5 3/3/5
f 21/1/5 3/2/5 5/3/5
f 19/1/5 17/4/5 1/2/5
f 5/1/5 3/4/5 9/2/5
f 23/1/5 21/4/5 5/2/5
f 5/1/5 9/2/5 11/3/5
f 23/1/5 5/2/5 7/3/5
f 18/2/6 14/1/6 24/3/6
f 18/4/6 24/1/6 2/2/6
f 16/4/6 14/1/6 18/2/6
f 4/2/6 18/1/6 2/3/6
f 2/2/6 24/1/6 8/3/6
f 20/4/6 18/1/6 4/2/6
f 2/4/6 8/1/6 12/2/6
f 24/4/6 22/1/6 8/2/6
f 12/2/6 8/1/6 10/3/6
f 8/2/6 22/1/6 6/3/6
