mtllib material.mtl
v 0.440000 1.000000 0.560000
v 0.440000 0.960000 0.440000
v 0.440000 0.960000 0.560000
v 0.440000 1.000000 0.440000
v 0.440000 0.560000 0.040000
v 0.440000 0.440000 0.000000
v 0.440000 0.440000 0.040000
v 0.440000 0.560000 0.000000
v 0.440000 0.560000 1.000000
v 0.440000 0.440000 0.960000
v 0.440000 0.440000 1.000000
v 0.440000 0.560000 0.960000
v 0.440000 0.040000 0.560000
v 0.440000 0.000000 0.440000
v 0.440000 0.000000 0.560000
v 0.440000 0.040000 0.440000
v 0.400000 0.960000 0.600000
v 0.400000 0.920000 0.400000
v 0.400000 0.920000 0.600000
v 0.400000 0.960000 0.400000
v 0.400000 0.600000 0.080000
v 0.400000 0.400000 0.040000
v 0.400000 0.400000 0.080000
v 0.400000 0.600000 0.040000
v 0.400000 0.600000 0.960000
v 0.400000 0.400000 0.920000
v 0.400000 0.400000 0.960000
v 0.400000 0.600000 0.920000
v 0.400000 0.080000 0.600000
v 0.400000 0.040000 0.400000
v 0.400000 0.040000 0.600000
v 0.400000 0.080000 0.400000
v 0.360000 0.920000 0.640000
v 0.360000 0.880000 0.360000
v 0.360000 0.880000 0.640000
v 0.360000 0.920000 0.360000
v 0.360000 0.640000 0.120000
v 0.360000 0.360000 0.080000
v 0.360000 0.360000 0.120000
v 0.360000 0.640000 0.080000
v 0.360000 0.640000 0.920000
v 0.360000 0.360000 0.880000
v 0.360000 0.360000 0.920000
v 0.360000 0.640000 0.880000
v 0.360000 0.120000 0.640000
v 0.360000 0.080000 0.360000
v 0.360000 0.080000 0.640000
v 0.360000 0.120000 0.360000
v 0.320000 0.880000 0.680000
v 0.320000 0.840000 0.320000
v 0.320000 0.840000 0.680000
v 0.320000 0.880000 0.320000
v 0.320000 0.680000 0.160000
v 0.320000 0.320000 0.120000
v 0.320000 0.320000 0.160000
v 0.320000 0.680000 0.120000
v 0.320000 0.680000 0.880000
v 0.320000 0.320000 0.840000
v 0.320000 0.320000 0.880000
v 0.320000 0.680000 0.840000
v 0.320000 0.160000 0.680000
v 0.320000 0.120000 0.320000
v 0.320000 0.120000 0.680000
v 0.320000 0.160000 0.320000
v 0.280000 0.840000 0.720000
v 0.280000 0.800000 0.280000
v 0.280000 0.800000 0.720000
v 0.280000 0.840000 0.280000
v 0.280000 0.720000 0.200000
v 0.280000 0.280000 0.160000
v 0.280000 0.280000 0.200000
v 0.280000 0.720000 0.160000
v 0.280000 0.720000 0.840000
v 0.280000 0.280000 0.800000
v 0.280000 0.280000 0.840000
v 0.280000 0.720000 0.800000
v 0.280000 0.200000 0.720000
v 0.280000 0.160000 0.280000
v 0.280000 0.160000 0.720000
v 0.280000 0.200000 0.280000
v 0.200000 0.800000 0.800000
v 0.200000 0.720000 0.720000
v 0.200000 0.200000 0.800000
v 0.200000 0.280000 0.720000
v 0.200000 0.800000 0.200000
v 0.200000 0.200000 0.200000
v 0.200000 0.720000 0.280000
v 0.200000 0.280000 0.280000
v 0.160000 0.720000 0.720000
v 0.160000 0.680000 0.680000
v 0.160000 0.280000 0.720000
v 0.160000 0.320000 0.680000
v 0.160000 0.720000 0.280000
v 0.160000 0.280000 0.280000
v 0.160000 0.680000 0.320000
v 0.160000 0.320000 0.320000
v 0.120000 0.680000 0.680000
v 0.120000 0.640000 0.640000
v 0.120000 0.320000 0.680000
v 0.120000 0.360000 0.640000
v 0.120000 0.680000 0.320000
v 0.120000 0.320000 0.320000
v 0.120000 0.640000 0.360000
v 0.120000 0.360000 0.360000
v 0.080000 0.640000 0.640000
v 0.080000 0.600000 0.600000
v 0.080000 0.360000 0.640000
v 0.080000 0.400000 0.600000
v 0.080000 0.640000 0.360000
v 0.080000 0.360000 0.360000
v 0.080000 0.600000 0.400000
v 0.080000 0.400000 0.400000
v 0.040000 0.600000 0.600000
v 0.040000 0.560000 0.560000
v 0.040000 0.400000 0.600000
v 0.040000 0.440000 0.560000
v 0.040000 0.600000 0.400000
v 0.040000 0.400000 0.400000
v 0.040000 0.560000 0.440000
v 0.040000 0.440000 0.440000
v 0.000000 0.560000 0.560000
v 0.000000 0.440000 0.440000
v 0.000000 0.440000 0.560000
v 0.000000 0.560000 0.440000
v 1.000000 0.560000 0.560000
v 1.000000 0.440000 0.440000
v 1.000000 0.440000 0.560000
v 1.000000 0.560000 0.440000
v 0.960000 0.600000 0.600000
v 0.960000 0.560000 0.560000
v 0.960000 0.400000 0.600000
v 0.960000 0.440000 0.560000
v 0.960000 0.600000 0.400000
v 0.960000 0.400000 0.400000
v 0.960000 0.560000 0.440000
v 0.960000 0.440000 0.440000
v 0.920000 0.640000 0.640000
v 0.920000 0.600000 0.600000
v 0.920000 0.360000 0.640000
v 0.920000 0.400000 0.600000
v 0.920000 0.640000 0.360000
v 0.920000 0.360000 0.360000
v 0.920000 0.600000 0.400000
v 0.920000 0.400000 0.400000
v 0.880000 0.680000 0.680000
v 0.880000 0.640000 0.640000
v 0.880000 0.320000 0.680000
v 0.880000 0.360000 0.640000
v 0.880000 0.680000 0.320000
v 0.880000 0.320000 0.320000
v 0.880000 0.640000 0.360000
v 0.880000 0.360000 0.360000
v 0.840000 0.720000 0.720000
v 0.840000 0.680000 0.680000
v 0.840000 0.280000 0.720000
v 0.840000 0.320000 0.680000
v 0.840000 0.720000 0.280000
v 0.840000 0.280000 0.280000
v 0.840000 0.680000 0.320000
v 0.840000 0.320000 0.320000
v 0.800000 0.800000 0.800000
v 0.800000 0.720000 0.720000
v 0.800000 0.200000 0.800000
v 0.800000 0.280000 0.720000
v 0.800000 0.800000 0.200000
v 0.800000 0.200000 0.200000
v 0.800000 0.720000 0.280000
v 0.800000 0.280000 0.280000
v 0.720000 0.840000 0.720000
v 0.720000 0.800000 0.280000
v 0.720000 0.800000 0.720000
v 0.720000 0.840000 0.280000
v 0.720000 0.720000 0.200000
v 0.720000 0.280000 0.160000
v 0.720000 0.280000 0.200000
v 0.720000 0.720000 0.160000
v 0.720000 0.720000 0.840000
v 0.720000 0.280000 0.800000
v 0.720000 0.280000 0.840000
v 0.720000 0.720000 0.800000
v 0.720000 0.200000 0.720000
v 0.720000 0.160000 0.280000
v 0.720000 0.160000 0.720000
v 0.720000 0.200000 0.280000
v 0.680000 0.880000 0.680000
v 0.680000 0.840000 0.320000
v 0.680000 0.840000 0.680000
v 0.680000 0.880000 0.320000
v 0.680000 0.680000 0.160000
v 0.680000 0.320000 0.120000
v 0.680000 0.320000 0.160000
v 0.680000 0.680000 0.120000
v 0.680000 0.680000 0.880000
v 0.680000 0.320000 0.840000
v 0.680000 0.320000 0.880000
v 0.680000 0.680000 0.840000
v 0.680000 0.160000 0.680000
v 0.680000 0.120000 0.320000
v 0.680000 0.120000 0.680000
v 0.680000 0.160000 0.320000
v 0.640000 0.920000 0.640000
v 0.640000 0.880000 0.360000
v 0.640000 0.880000 0.640000
v 0.640000 0.920000 0.360000
v 0.640000 0.640000 0.120000
v 0.640000 0.360000 0.080000
v 0.640000 0.360000 0.120000
v 0.640000 0.640000 0.080000
v 0.640000 0.640000 0.920000
v 0.640000 0.360000 0.880000
v 0.640000 0.360000 0.920000
v 0.640000 0.640000 0.880000
v 0.640000 0.120000 0.640000
v 0.640000 0.080000 0.360000
v 0.640000 0.080000 0.640000
v 0.640000 0.120000 0.360000
v 0.600000 0.960000 0.600000
v 0.600000 0.920000 0.400000
v 0.600000 0.920000 0.600000
v 0.600000 0.960000 0.400000
v 0.600000 0.600000 0.080000
v 0.600000 0.400000 0.040000
v 0.600000 0.400000 0.080000
v 0.600000 0.600000 0.040000
v 0.600000 0.600000 0.960000
v 0.600000 0.400000 0.920000
v 0.600000 0.400000 0.960000
v 0.600000 0.600000 0.920000
v 0.600000 0.080000 0.600000
v 0.600000 0.040000 0.400000
v 0.600000 0.040000 0.600000
v 0.600000 0.080000 0.400000
v 0.560000 1.000000 0.560000
v 0.560000 0.960000 0.440000
v 0.560000 0.960000 0.560000
v 0.560000 1.000000 0.440000
v 0.560000 0.560000 0.040000
v 0.560000 0.440000 0.000000
v 0.560000 0.440000 0.040000
v 0.560000 0.560000 0.000000
v 0.560000 0.560000 1.000000
v 0.560000 0.440000 0.960000
v 0.560000 0.440000 1.000000
v 0.560000 0.560000 0.960000
v 0.560000 0.040000 0.560000
v 0.560000 0.000000 0.440000
v 0.560000 0.000000 0.560000
v 0.560000 0.040000 0.440000
vt 0.000177 0.999823
vt 0.249646 0.999823
vt 0.000177 0.750354
vt 0.250177 0.999823
vt 0.499646 0.999823
vt 0.250177 0.750354
vn -1.000000 0.000000 0.000000
vn 1.000000 0.000000 0.000000
vn 0.000000 -1.000000 0.000000
vn 0.000000 1.000000 0.000000
vn 0.000000 0.000000 1.000000
vn 0.000000 0.000000 -1.000000
usemtl material
f 1/1/1 2/2/1 3/3/1
f 1/1/1 4/2/1 2/3/1
f 5/1/1 6/2/1 7/3/1
f 5/1/1 8/2/1 6/3/1
f 9/1/1 10/2/1 11/3/1
f 9/1/1 12/2/1 10/3/1
f 13/1/1 14/2/1 15/3/1
f 13/1/1 16/2/1 14/3/1
f 17/1/1 18/2/1 19/3/1
f 17/1/1 20/2/1 18/3/1
f 21/1/1 22/2/1 23/3/1
f 21/1/1 24/2/1 22/3/1
f 25/1/1 26/2/1 27/3/1
f 25/1/1 28/2/1 26/3/1
f 29/1/1 30/2/1 31/3/1
f 29/1/1 32/2/1 30/3/1
f 33/1/1 34/2/1 35/3/1
f 33/1/1 36/2/1 34/3/1
f 37/1/1 38/2/1 39/3/1
f 37/1/1 40/2/1 38/3/1
f 41/1/1 42/2/1 43/3/1
f 41/1/1 44/2/1 42/3/1
f 45/1/1 46/2/1 47/3/1
f 45/1/1 48/2/1 46/3/1
f 49/1/1 50/2/1 51/3/1
f 49/1/1 52/2/1 50/3/1
f 53/1/1 54/2/1 55/3/1
f 53/1/1 56/2/1 54/3/1
f 57/1/1 58/2/1 59/3/1
f 57/1/1 60/2/1 58/3/1
f 61/1/1 62/2/1 63/3/1
f 61/1/1 64/2/1 62/3/1
f 65/1/1 66/2/1 67/3/1
f 65/1/1 68/2/1 66/3/1
f 69/1/1 70/2/1 71/3/1
f 69/1/1 72/2/1 70/3/1
f 73/1/1 74/2/1 75/3/1
f 73/1/1 76/2/1 74/3/1
f 77/1/1 78/2/1 79/3/1
f 77/1/1 80/2/1 78/3/1
f 81/4/1 82/5/1 83/6/1
f 82/4/1 84/5/1 83/6/1
f 81/4/1 85/5/1 82/6/1
f 84/4/1 86/5/1 83/6/1
f 85/4/1 87/5/1 82/6/1
f 84/4/1 88/5/1 86/6/1
f 87/4/1 85/5/1 86/6/1
f 88/4/1 87/5/1 86/6/1
f 89/1/1 90/2/1 91/3/1
f 90/1/1 92/2/1 91/3/1
f 89/1/1 93/2/1 90/3/1
f 92/1/1 94/2/1 91/3/1
f 93/1/1 95/2/1 90/3/1
f 92/1/1 96/2/1 94/3/1
f 95/1/1 93/2/1 94/3/1
f 96/1/1 95/2/1 94/3/1
f 97/1/1 98/2/1 99/3/1
f 98/1/1 100/2/1 99/3/1
f 97/1/1 101/2/1 98/3/1
f 100/1/1 102/2/1 99/3/1
f 101/1/1 103/2/1 98/3/1
f 100/1/1 104/2/1 102/3/1
f 103/1/1 101/2/1 102/3/1
f 104/1/1 103/2/1 102/3/1
f 105/1/1 106/2/1 107/3/1
f 106/1/1 108/2/1 107/3/1
f 105/1/1 109/2/1 106/3/1
f 108/1/1 110/2/1 107/3/1
f 109/1/1 111/2/1 106/3/1
f 108/1/1 112/2/1 110/3/1
f 111/1/1 109/2/1 110/3/1
f 112/1/1 111/2/1 110/3/1
f 113/1/1 114/2/1 115/3/1
f 114/1/1 116/2/1 115/3/1
f 113/1/1 117/2/1 114/3/1
f 116/1/1 118/2/1 115/3/1
f 117/1/1 119/2/1 114/3/1
f 116/1/1 120/2/1 118/3/1
f 119/1/1 117/2/1 118/3/1
f 120/1/1 119/2/1 118/3/1
f 121/1/1 122/2/1 123/3/1
f 121/1/1 124/2/1 122/3/1
f 126/2/2 125/1/2 127/3/2
f 128/2/2 125/1/2 126/3/2
f 130/2/2 129/1/2 131/3/2
f 132/2/2 130/1/2 131/3/2
f 133/2/2 129/1/2 130/3/2
f 134/2/2 132/1/2 131/3/2
f 135/2/2 133/1/2 130/3/2
f 136/2/2 132/1/2 134/3/2
f 133/2/2 135/1/2 134/3/2
f 135/2/2 136/1/2 134/3/2
f 138/2/2 137/1/2 139/3/2
f 140/2/2 138/1/2 139/3/2
f 141/2/2 137/1/2 138/3/2
f 142/2/2 140/1/2 139/3/2
f 143/2/2 141/1/2 138/3/2
f 144/2/2 140/1/2 142/3/2
f 141/2/2 143/1/2 142/3/2
f 143/2/2 144/1/2 142/3/2
f 146/2/2 145/1/2 147/3/2
f 148/2/2 146/1/2 147/3/2
f 149/2/2 145/1/2 146/3/2
f 150/2/2 148/1/2 147/3/2
f 151/2/2 149/1/2 146/3/2
f 152/2/2 148/1/2 150/3/2
f 149/2/2 151/1/2 150/3/2
f 151/2/2 152/1/2 150/3/2
f 154/2/2 153/1/2 155/3/2
f 156/2/2 154/1/2 155/3/2
f 157/2/2 153/1/2 154/3/2
f 158/2/2 156/1/2 155/3/2
f 159/2/2 157/1/2 154/3/2
f 160/2/2 156/1/2 158/3/2
f 157/2/2 159/1/2 158/3/2
f 159/2/2 160/1/2 158/3/2
f 162/5/2 161/4/2 163/6/2
f 164/5/2 162/4/2 163/6/2
f 165/5/2 161/4/2 162/6/2
f 166/5/2 164/4/2 163/6/2
f 167/5/2 165/4/2 162/6/2
f 168/5/2 164/4/2 166/6/2
f 165/5/2 167/4/2 166/6/2
f 167/5/2 168/4/2 166/6/2
f 170/2/2 169/1/2 171/3/2
f 172/2/2 169/1/2 170/3/2
f 174/2/2 173/1/2 175/3/2
f 176/2/2 173/1/2 174/3/2
f 178/2/2 177/1/2 179/3/2
f 180/2/2 177/1/2 178/3/2
f 182/2/2 181/1/2 183/3/2
f 184/2/2 181/1/2 182/3/2
f 186/2/2 185/1/2 187/3/2
f 188/2/2 185/1/2 186/3/2
f 190/2/2 189/1/2 191/3/2
f 192/2/2 189/1/2 190/3/2
f 194/2/2 193/1/2 195/3/2
f 196/2/2 193/1/2 194/3/2
f 198/2/2 197/1/2 199/3/2
f 200/2/2 197/1/2 198/3/2
f 202/2/2 201/1/2 203/3/2
f 204/2/2 201/1/2 202/3/2
f 206/2/2 205/1/2 207/3/2
f 208/2/2 205/1/2 206/3/2
f 210/2/2 209/1/2 211/3/2
f 212/2/2 209/1/2 210/3/2
f 214/2/2 213/1/2 215/3/2
f 216/2/2 213/1/2 214/3/2
f 218/2/2 217/1/2 219/3/2
f 220/2/2 217/1/2 218/3/2
f 222/2/2 221/1/2 223/3/2
f 224/2/2 221/1/2 222/3/2
f 226/2/2 225/1/2 227/3/2
f 228/2/2 225/1/2 226/3/2
f 230/2/2 229/1/2 231/3/2
f 232/2/2 229/1/2 230/3/2
f 234/2/2 233/1/2 235/3/2
f 236/2/2 233/1/2 234/3/2
f 238/2/2 237/1/2 239/3/2
f 240/2/2 237/1/2 238/3/2
f 242/2/2 241/1/2 243/3/2
f 244/2/2 241/1/2 242/3/2
f 246/2/2 245/1/2 247/3/2
f 248/2/2 245/1/2 246/3/2
f 14/2/3 247/1/3 15/3/3
f 246/2/3 247/1/3 14/3/3
f 136/2/3 127/1/3 132/3/3
f 126/2/3 127/1/3 136/3/3
f 6/2/3 239/1/3 7/3/3
f 238/2/3 239/1/3 6/3/3
f 10/2/3 243/1/3 11/3/3
f 242/2/3 243/1/3 10/3/3
f 122/2/3 116/1/3 123/3/3
f 120/2/3 116/1/3 122/3/3
f 144/2/3 131/1/3 140/3/3
f 134/2/3 131/1/3 144/3/3
f 22/2/3 223/1/3 23/3/3
f 222/2/3 223/1/3 22/3/3
f 26/2/3 227/1/3 27/3/3
f 226/2/3 227/1/3 26/3/3
f 118/2/3 108/1/3 115/3/3
f 112/2/3 108/1/3 118/3/3
f 152/2/3 139/1/3 148/3/3
f 142/2/3 139/1/3 152/3/3
f 38/2/3 207/1/3 39/3/3
f 206/2/3 207/1/3 38/3/3
f 42/2/3 211/1/3 43/3/3
f 210/2/3 211/1/3 42/3/3
f 110/2/3 100/1/3 107/3/3
f 104/2/3 100/1/3 110/3/3
f 160/2/3 147/1/3 156/3/3
f 150/2/3 147/1/3 160/3/3
f 54/2/3 191/1/3 55/3/3
f 190/2/3 191/1/3 54/3/3
f 58/2/3 195/1/3 59/3/3
f 194/2/3 195/1/3 58/3/3
f 102/2/3 92/1/3 99/3/3
f 96/2/3 92/1/3 102/3/3
f 168/2/3 155/1/3 164/3/3
f 158/2/3 155/1/3 168/3/3
f 70/2/3 175/1/3 71/3/3
f 174/2/3 175/1/3 70/3/3
f 74/2/3 179/1/3 75/3/3
f 178/2/3 179/1/3 74/3/3
f 94/2/3 84/1/3 91/3/3
f 88/2/3 84/1/3 94/3/3
f 181/5/3 163/4/3 83/6/3
f 77/5/3 181/4/3 83/6/3
f 166/5/3 163/4/3 181/6/3
f 86/5/3 77/4/3 83/6/3
f 184/5/3 166/4/3 181/6/3
f 80/5/3 77/4/3 86/6/3
f 166/5/3 184/4/3 86/6/3
f 184/5/3 80/4/3 86/6/3
f 197/2/3 183/1/3 79/3/3
f 61/2/3 197/1/3 79/3/3
f 182/2/3 183/1/3 197/3/3
f 78/2/3 61/1/3 79/3/3
f 200/2/3 182/1/3 197/3/3
f 64/2/3 61/1/3 78/3/3
f 182/2/3 200/1/3 78/3/3
f 200/2/3 64/1/3 78/3/3
f 213/2/3 199/1/3 63/3/3
f 45/2/3 213/1/3 63/3/3
f 198/2/3 199/1/3 213/3/3
f 62/2/3 45/1/3 63/3/3
f 216/2/3 198/1/3 213/3/3
f 48/2/3 45/1/3 62/3/3
f 198/2/3 216/1/3 62/3/3
f 216/2/3 48/1/3 62/3/3
f 229/2/3 215/1/3 47/3/3
f 29/2/3 229/1/3 47/3/3
f 214/2/3 215/1/3 229/3/3
f 46/2/3 29/1/3 47/3/3
f 232/2/3 214/1/3 229/3/3
f 32/2/3 29/1/3 46/3/3
f 214/2/3 232/1/3 46/3/3
f 232/2/3 32/1/3 46/3/3
f 245/2/3 231/1/3 31/3/3
f 13/2/3 245/1/3 31/3/3
f 230/2/3 231/1/3 245/3/3
f 30/2/3 13/1/3 31/3/3
f 248/2/3 230/1/3 245/3/3
f 16/2/3 13/1/3 30/3/3
f 230/2/3 248/1/3 30/3/3
f 248/2/3 16/1/3 30/3/3
f 145/1/4 159/2/4 154/3/4
f 145/1/4 149/2/4 159/3/4
f 189/1/4 56/2/4 53/3/4
f 189/1/4 192/2/4 56/3/4
f 193/1/4 60/2/4 57/3/4
f 193/1/4 196/2/4 60/3/4
f 90/1/4 101/2/4 97/3/4
f 90/1/4 95/2/4 101/3/4
f 137/1/4 151/2/4 146/3/4
f 137/1/4 141/2/4 151/3/4
f 205/1/4 40/2/4 37/3/4
f 205/1/4 208/2/4 40/3/4
f 209/1/4 44/2/4 41/3/4
f 209/1/4 212/2/4 44/3/4
f 98/1/4 109/2/4 105/3/4
f 98/1/4 103/2/4 109/3/4
f 129/1/4 143/2/4 138/3/4
f 129/1/4 133/2/4 143/3/4
f 221/1/4 24/2/4 21/3/4
f 221/1/4 224/2/4 24/3/4
f 225/1/4 28/2/4 25/3/4
f 225/1/4 228/2/4 28/3/4
f 106/1/4 117/2/4 113/3/4
f 106/1/4 111/2/4 117/3/4
f 125/1/4 135/2/4 130/3/4
f 125/1/4 128/2/4 135/3/4
f 237/1/4 8/2/4 5/3/4
f 237/1/4 240/2/4 8/3/4
f 241/1/4 12/2/4 9/3/4
f 241/1/4 244/2/4 12/3/4
f 114/1/4 124/2/4 121/3/4
f 114/1/4 119/2/4 124/3/4
f 217/1/4 235/2/4 17/3/4
f 235/1/4 3/2/4 17/3/4
f 217/1/4 220/2/4 235/3/4
f 3/1/4 20/2/4 17/3/4
f 220/1/4 234/2/4 235/3/4
f 3/1/4 2/2/4 20/3/4
f 234/1/4 220/2/4 20/3/4
f 2/1/4 234/2/4 20/3/4
f 233/1/4 4/2/4 1/3/4
f 233/1/4 236/2/4 4/3/4
f 185/1/4 203/2/4 49/3/4
f 203/1/4 35/2/4 49/3/4
f 185/1/4 188/2/4 203/3/4
f 35/1/4 52/2/4 49/3/4
f 188/1/4 202/2/4 203/3/4
f 35/1/4 34/2/4 52/3/4
f 202/1/4 188/2/4 52/3/4
f 34/1/4 202/2/4 52/3/4
f 201/1/4 219/2/4 33/3/4
f 219/1/4 19/2/4 33/3/4
f 201/1/4 204/2/4 219/3/4
f 19/1/4 36/2/4 33/3/4
f 204/1/4 218/2/4 219/3/4
f 19/1/4 18/2/4 36/3/4
f 218/1/4 204/2/4 36/3/4
f 18/1/4 218/2/4 36/3/4
f 161/4/4 171/5/4 81/6/4
f 171/4/4 67/5/4 81/6/4
f 161/4/4 165/5/4 171/6/4
f 67/4/4 85/5/4 81/6/4
f 165/4/4 170/5/4 171/6/4
f 67/4/4 66/5/4 85/6/4
f 170/4/4 165/5/4 85/6/4
f 66/4/4 170/5/4 85/6/4
f 169/1/4 187/2/4 65/3/4
f 187/1/4 51/2/4 65/3/4
f 169/1/4 172/2/4 187/3/4
f 51/1/4 68/2/4 65/3/4
f 172/1/4 186/2/4 187/3/4
f 51/1/4 50/2/4 68/3/4
f 186/1/4 172/2/4 68/3/4
f 50/1/4 186/2/4 68/3/4
f 153/1/4 167/2/4 162/3/4
f 153/1/4 157/2/4 167/3/4
f 173/1/4 72/2/4 69/3/4
f 173/1/4 176/2/4 72/3/4
f 177/1/4 76/2/4 73/3/4
f 177/1/4 180/2/4 76/3/4
f 82/1/4 93/2/4 89/3/4
f 82/1/4 87/2/4 93/3/4
f 127/1/5 130/2/5 132/3/5
f 127/1/5 125/2/5 130/3/5
f 235/1/5 1/2/5 3/3/5
f 235/1/5 233/2/5 1/3/5
f 247/1/5 13/2/5 15/3/5
f 247/1/5 245/2/5 13/3/5
f 116/1/5 121/2/5 123/3/5
f 116/1/5 114/2/5 121/3/5
f 131/1/5 138/2/5 140/3/5
f 131/1/5 129/2/5 138/3/5
f 219/1/5 17/2/5 19/3/5
f 219/1/5 217/2/5 17/3/5
f 231/1/5 29/2/5 31/3/5
f 231/1/5 229/2/5 29/3/5
f 108/1/5 113/2/5 115/3/5
f 108/1/5 106/2/5 113/3/5
f 139/1/5 146/2/5 148/3/5
f 139/1/5 137/2/5 146/3/5
f 203/1/5 33/2/5 35/3/5
f 203/1/5 201/2/5 33/3/5
f 215/1/5 45/2/5 47/3/5
f 215/1/5 213/2/5 45/3/5
f 100/1/5 105/2/5 107/3/5
f 100/1/5 98/2/5 105/3/5
f 147/1/5 154/2/5 156/3/5
f 147/1/5 145/2/5 154/3/5
f 187/1/5 49/2/5 51/3/5
f 187/1/5 185/2/5 49/3/5
f 199/1/5 61/2/5 63/3/5
f 199/1/5 197/2/5 61/3/5
f 92/1/5 97/2/5 99/3/5
f 92/1/5 90/2/5 97/3/5
f 155/1/5 162/2/5 164/3/5
f 155/1/5 153/2/5 162/3/5
f 171/1/5 65/2/5 67/3/5
f 171/1/5 169/2/5 65/3/5
f 183/1/5 77/2/5 79/3/5
f 183/1/5 181/2/5 77/3/5
f 84/1/5 89/2/5 91/3/5
f 84/1/5 82/2/5 89/3/5
f 163/4/5 178/5/5 83/6/5
f 178/4/5 74/5/5 83/6/5
f 163/4/5 161/5/5 178/6/5
f 74/4/5 81/5/5 83/6/5
f 161/4/5 180/5/5 178/6/5
f 74/4/5 76/5/5 81/6/5
f 180/4/5 161/5/5 81/6/5
f 76/4/5 180/5/5 81/6/5
f 179/1/5 194/2/5 75/3/5
f 194/1/5 58/2/5 75/3/5
f 179/1/5 177/2/5 194/3/5
f 58/1/5 73/2/5 75/3/5
f 177/1/5 196/2/5 194/3/5
f 58/1/5 60/2/5 73/3/5
f 196/1/5 177/2/5 73/3/5
f 60/1/5 196/2/5 73/3/5
f 195/1/5 210/2/5 59/3/5
f 210/1/5 42/2/5 59/3/5
f 195/1/5 193/2/5 210/3/5
f 42/1/5 57/2/5 59/3/5
f 193/1/5 212/2/5 210/3/5
f 42/1/5 44/2/5 57/3/5
f 212/1/5 193/2/5 57/3/5
f 44/1/5 212/2/5 57/3/5
f 211/1/5 226/2/5 43/3/5
f 226/1/5 26/2/5 43/3/5
f 211/1/5 209/2/5 226/3/5
f 26/1/5 41/2/5 43/3/5
f 209/1/5 228/2/5 226/3/5
f 26/1/5 28/2/5 41/3/5
f 228/1/5 209/2/5 41/3/5
f 28/1/5 228/2/5 41/3/5
f 227/1/5 242/2/5 27/3/5
f 242/1/5 10/2/5 27/3/5
f 227/1/5 225/2/5 242/3/5
f 10/1/5 25/2/5 27/3/5
f 225/1/5 244/2/5 242/3/5
f 10/1/5 12/2/5 25/3/5
f 244/1/5 225/2/5 25/3/5
f 12/1/5 244/2/5 25/3/5
f 243/1/5 9/2/5 11/3/5
f 243/1/5 241/2/5 9/3/5
f 8/2/6 238/1/6 6/3/6
f 240/2/6 238/1/6 8/3/6
f 239/2/6 222/1/6 22/3/6
f 7/2/6 239/1/6 22/3/6
f 224/2/6 222/1/6 239/3/6
f 24/2/6 7/1/6 22/3/6
f 237/2/6 224/1/6 239/3/6
f 5/2/6 7/1/6 24/3/6
f 224/2/6 237/1/6 24/3/6
f 237/2/6 5/1/6 24/3/6
f 223/2/6 206/1/6 38/3/6
f 23/2/6 223/1/6 38/3/6
f 208/2/6 206/1/6 223/3/6
f 40/2/6 23/1/6 38/3/6
f 221/2/6 208/1/6 223/3/6
f 21/2/6 23/1/6 40/3/6
f 208/2/6 221/1/6 40/3/6
f 221/2/6 21/1/6 40/3/6
f 207/2/6 190/1/6 54/3/6
f 39/2/6 207/1/6 54/3/6
f 192/2/6 190/1/6 207/3/6
f 56/2/6 39/1/6 54/3/6
f 205/2/6 192/1/6 207/3/6
f 37/2/6 39/1/6 56/3/6
f 192/2/6 205/1/6 56/3/6
f 205/2/6 37/1/6 56/3/6
f 191/2/6 174/1/6 70/3/6
f 55/2/6 191/1/6 70/3/6
f 176/2/6 174/1/6 191/3/6
f 72/2/6 55/1/6 70/3/6
f 189/2/6 176/1/6 191/3/6
f 53/2/6 55/1/6 72/3/6
f 176/2/6 189/1/6 72/3/6
f 189/2/6 53/1/6 72/3/6
f 175/5/6 166/4/6 86/6/6
f 71/5/6 175/4/6 86/6/6
f 165/5/6 166/4/6 175/6/6
f 85/5/6 71/4/6 86/6/6
f 173/5/6 165/4/6 175/6/6
f 69/5/6 71/4/6 85/6/6
f 165/5/6 173/4/6 85/6/6
f 173/5/6 69/4/6 85/6/6
f 167/2/6 158/1/6 168/3/6
f 157/2/6 158/1/6 167/3/6
f 68/2/6 170/1/6 66/3/6
f 172/2/6 170/1/6 68/3/6
f 80/2/6 182/1/6 78/3/6
f 184/2/6 182/1/6 80/3/6
f 93/2/6 88/1/6 94/3/6
f 87/2/6 88/1/6 93/3/6
f 159/2/6 150/1/6 160/3/6
f 149/2/6 150/1/6 159/3/6
f 52/2/6 186/1/6 50/3/6
f 188/2/6 186/1/6 52/3/6
f 64/2/6 198/1/6 62/3/6
f 200/2/6 198/1/6 64/3/6
f 101/2/6 96/1/6 102/3/6
f 95/2/6 96/1/6 101/3/6
f 151/2/6 142/1/6 152/3/6
f 141/2/6 142/1/6 151/3/6
f 36/2/6 202/1/6 34/3/6
f 204/2/6 202/1/6 36/3/6
f 48/2/6 214/1/6 46/3/6
f 216/2/6 214/1/6 48/3/6
f 109/2/6 104/1/6 110/3/6
f 103/2/6 104/1/6 109/3/6
f 143/2/6 134/1/6 144/3/6
f 133/2/6 134/1/6 143/3/6
f 20/2/6 218/1/6 18/3/6
f 220/2/6 218/1/6 20/3/6
f 32/2/6 230/1/6 30/3/6
f 232/2/6 230/1/6 32/3/6
f 117/2/6 112/1/6 118/3/6
f 111/2/6 112/1/6 117/3/6
f 135/2/6 126/1/6 136/3/6
f 128/2/6 126/1/6 135/3/6
f 4/2/6 234/1/6 2/3/6
f 236/2/6 234/1/6 4/3/6
f 16/2/6 246/1/6 14/3/6
f 248/2/6 246/1/6 16/3/6
f 124/2/6 120/1/6 122/3/6
f 119/2/6 120/1/6 124/3/6
