mtllib inner.mtl
v 0.480000 0.700000 0.640000
v 0.480000 0.660000 0.520000
v 0.480000 0.660000 0.640000
v 0.480000 0.700000 0.520000
v 0.480000 0.700000 0.480000
v 0.480000 0.660000 0.360000
v 0.480000 0.660000 0.480000
v 0.480000 0.700000 0.360000
v 0.440000 0.740000 0.760000
v 0.440000 0.700000 0.720000
v 0.440000 0.700000 0.760000
v 0.440000 0.740000 0.720000
v 0.440000 0.740000 0.280000
v 0.440000 0.700000 0.240000
v 0.440000 0.700000 0.280000
v 0.440000 0.740000 0.240000
v 0.440000 0.660000 0.280000
v 0.440000 0.620000 0.240000
v 0.440000 0.620000 0.280000
v 0.440000 0.660000 0.240000
v 0.440000 0.660000 0.760000
v 0.440000 0.620000 0.720000
v 0.440000 0.620000 0.760000
v 0.440000 0.660000 0.720000
v 0.400000 0.740000 0.720000
v 0.400000 0.620000 0.640000
v 0.400000 0.620000 0.720000
v 0.400000 0.740000 0.640000
v 0.400000 0.740000 0.360000
v 0.400000 0.620000 0.280000
v 0.400000 0.620000 0.360000
v 0.400000 0.740000 0.280000
v 0.280000 0.740000 0.600000
v 0.280000 0.700000 0.560000
v 0.280000 0.620000 0.600000
v 0.280000 0.660000 0.560000
v 0.280000 0.740000 0.560000
v 0.280000 0.620000 0.560000
v 0.280000 0.660000 0.440000
v 0.280000 0.700000 0.440000
v 0.280000 0.620000 0.400000
v 0.280000 0.740000 0.400000
v 0.280000 0.620000 0.440000
v 0.280000 0.740000 0.440000
v 0.240000 0.740000 0.560000
v 0.240000 0.700000 0.440000
v 0.240000 0.700000 0.560000
v 0.240000 0.740000 0.440000
v 0.240000 0.660000 0.560000
v 0.240000 0.620000 0.440000
v 0.240000 0.620000 0.560000
v 0.240000 0.660000 0.440000
v 0.640000 0.740000 0.600000
v 0.640000 0.700000 0.520000
v 0.640000 0.620000 0.600000
v 0.640000 0.660000 0.520000
v 0.640000 0.740000 0.400000
v 0.640000 0.620000 0.400000
v 0.640000 0.700000 0.480000
v 0.640000 0.660000 0.480000
v 0.520000 0.700000 0.640000
v 0.520000 0.660000 0.520000
v 0.520000 0.660000 0.640000
v 0.520000 0.700000 0.520000
v 0.520000 0.700000 0.480000
v 0.520000 0.660000 0.360000
v 0.520000 0.660000 0.480000
v 0.520000 0.700000 0.360000
v 0.360000 0.740000 0.600000
v 0.360000 0.700000 0.520000
v 0.360000 0.620000 0.600000
v 0.360000 0.660000 0.520000
v 0.360000 0.740000 0.400000
v 0.360000 0.620000 0.400000
v 0.360000 0.700000 0.480000
v 0.360000 0.660000 0.480000
v 0.760000 0.740000 0.560000
v 0.760000 0.700000 0.440000
v 0.760000 0.700000 0.560000
v 0.760000 0.740000 0.440000
v 0.760000 0.660000 0.560000
v 0.760000 0.620000 0.440000
v 0.760000 0.620000 0.560000
v 0.760000 0.660000 0.440000
v 0.720000 0.740000 0.600000
v 0.720000 0.700000 0.560000
v 0.720000 0.620000 0.600000
v 0.720000 0.660000 0.560000
v 0.720000 0.740000 0.560000
v 0.720000 0.620000 0.560000
v 0.720000 0.660000 0.440000
v 0.720000 0.700000 0.440000
v 0.720000 0.620000 0.400000
v 0.720000 0.740000 0.400000
v 0.720000 0.620000 0.440000
v 0.720000 0.740000 0.440000
v 0.600000 0.740000 0.720000
v 0.600000 0.620000 0.640000
v 0.600000 0.620000 0.720000
v 0.600000 0.740000 0.640000
v 0.600000 0.740000 0.360000
v 0.600000 0.620000 0.280000
v 0.600000 0.620000 0.360000
v 0.600000 0.740000 0.280000
v 0.560000 0.740000 0.760000
v 0.560000 0.700000 0.720000
v 0.560000 0.700000 0.760000
v 0.560000 0.740000 0.720000
v 0.560000 0.740000 0.280000
v 0.560000 0.700000 0.240000
v 0.560000 0.700000 0.280000
v 0.560000 0.740000 0.240000
v 0.560000 0.660000 0.280000
v 0.560000 0.620000 0.240000
v 0.560000 0.620000 0.280000
v 0.560000 0.660000 0.240000
v 0.560000 0.660000 0.760000
v 0.560000 0.620000 0.720000
v 0.560000 0.620000 0.760000
v 0.560000 0.660000 0.720000
vt 0.125177 0.750088
vt 0.249912 0.874823
vt 0.249912 0.750088
vt 0.125088 0.750177
vt 0.125088 0.874912
vt 0.249823 0.874912
vt 0.125100 0.750075
vt 0.166692 0.874850
vt 0.125188 0.874875
vt 0.187500 0.874875
vt 0.249812 0.750250
vt 0.249912 0.874912
vt 0.249912 0.750177
vt 0.187500 0.750125
vt 0.249812 0.874750
vt 0.166692 0.750150
vt 0.249823 0.750088
vt 0.125088 0.874823
vt 0.249855 0.800015
vt 0.125145 0.800015
vt 0.125237 0.874802
vt 0.249881 0.791706
vt 0.125119 0.791706
vt 0.249763 0.874802
vt 0.125112 0.843694
vt 0.125160 0.775048
vt 0.150048 0.874840
vt 0.218694 0.874888
vt 0.150048 0.750160
vt 0.218694 0.750112
vt 0.249840 0.775048
vt 0.249888 0.843694
vt 0.249850 0.791692
vt 0.249875 0.812500
vt 0.125125 0.812500
vt 0.249750 0.874812
vt 0.175015 0.874855
vt 0.166706 0.874881
vt 0.175015 0.750145
vn -1.000000 0.000000 0.000000
vn 1.000000 0.000000 0.000000
vn 0.000000 -1.000000 0.000000
vn 0.000000 1.000000 0.000000
vn 0.000000 0.000000 1.000000
vn 0.000000 0.000000 -1.000000
usemtl inner
f 1/1/1 2/2/1 3/3/1
f 1/4/1 4/5/1 2/6/1
f 5/1/1 6/2/1 7/3/1
f 5/4/1 8/5/1 6/6/1
f 9/1/1 10/2/1 11/3/1
f 9/4/1 12/5/1 10/6/1
f 13/1/1 14/2/1 15/3/1
f 13/4/1 16/5/1 14/6/1
f 17/1/1 18/2/1 19/3/1
f 17/4/1 20/5/1 18/6/1
f 21/1/1 22/2/1 23/3/1
f 21/4/1 24/5/1 22/6/1
f 25/1/1 26/2/1 27/3/1
f 25/4/1 28/5/1 26/6/1
f 29/1/1 30/2/1 31/3/1
f 29/4/1 32/5/1 30/6/1
f 33/7/1 34/8/1 35/3/1
f 34/9/1 36/10/1 35/11/1
f 33/4/1 37/5/1 34/6/1
f 36/9/1 38/12/1 35/13/1
f 34/1/1 39/2/1 36/3/1
f 34/4/1 40/5/1 39/6/1
f 39/14/1 40/1/1 41/15/1
f 41/12/1 40/16/1 42/5/1
f 39/1/1 41/2/1 43/3/1
f 40/17/1 44/7/1 42/18/1
f 45/1/1 46/2/1 47/3/1
f 45/4/1 48/5/1 46/6/1
f 49/1/1 50/2/1 51/3/1
f 49/4/1 52/5/1 50/6/1
f 53/7/1 54/8/1 55/3/1
f 54/9/1 56/10/1 55/11/1
f 53/7/1 57/5/1 54/19/1
f 56/20/1 58/12/1 55/3/1
f 57/21/1 59/22/1 54/13/1
f 56/4/1 60/23/1 58/24/1
f 59/16/1 57/5/1 58/12/1
f 60/14/1 59/1/1 58/15/1
f 62/2/2 61/1/2 63/3/2
f 64/5/2 61/4/2 62/6/2
f 66/2/2 65/1/2 67/3/2
f 68/5/2 65/4/2 66/6/2
f 70/8/2 69/7/2 71/3/2
f 72/10/2 70/9/2 71/11/2
f 73/5/2 69/7/2 70/19/2
f 74/12/2 72/20/2 71/3/2
f 75/22/2 73/21/2 70/13/2
f 76/23/2 72/4/2 74/24/2
f 73/5/2 75/16/2 74/12/2
f 75/1/2 76/14/2 74/15/2
f 78/2/2 77/1/2 79/3/2
f 80/5/2 77/4/2 78/6/2
f 82/2/2 81/1/2 83/3/2
f 84/5/2 81/4/2 82/6/2
f 86/8/2 85/7/2 87/3/2
f 88/10/2 86/9/2 87/11/2
f 89/5/2 85/4/2 86/6/2
f 90/12/2 88/9/2 87/13/2
f 91/2/2 86/1/2 88/3/2
f 92/5/2 86/4/2 91/6/2
f 92/1/2 91/14/2 93/15/2
f 92/16/2 93/12/2 94/5/2
f 93/2/2 91/1/2 95/3/2
f 96/7/2 92/17/2 94/18/2
f 98/2/2 97/1/2 99/3/2
f 100/5/2 97/4/2 98/6/2
f 102/2/2 101/1/2 103/3/2
f 104/5/2 101/4/2 102/6/2
f 106/2/2 105/1/2 107/3/2
f 108/5/2 105/4/2 106/6/2
f 110/2/2 109/1/2 111/3/2
f 112/5/2 109/4/2 110/6/2
f 114/2/2 113/1/2 115/3/2
f 116/5/2 113/4/2 114/6/2
f 118/2/2 117/1/2 119/3/2
f 120/5/2 117/4/2 118/6/2
f 95/2/3 83/1/3 90/3/3
f 95/25/3 90/4/3 58/6/3
f 82/5/3 83/4/3 95/6/3
f 93/5/3 95/4/3 58/6/3
f 90/26/3 55/3/3 58/12/3
f 87/7/3 55/17/3 90/18/3
f 115/27/3 103/7/3 31/3/3
f 19/28/3 115/9/3 31/13/3
f 102/5/3 103/4/3 115/6/3
f 30/12/3 19/9/3 31/13/3
f 18/2/3 115/1/3 19/3/3
f 114/5/3 115/4/3 18/6/3
f 99/7/3 118/17/3 98/18/3
f 118/29/3 26/12/3 98/5/3
f 118/1/3 22/30/3 26/2/3
f 26/2/3 22/1/3 27/3/3
f 118/5/3 119/4/3 22/6/3
f 22/2/3 119/1/3 23/3/3
f 38/2/3 71/1/3 35/3/3
f 74/5/3 71/7/3 38/31/3
f 43/32/3 74/9/3 38/13/3
f 43/5/3 38/4/3 50/6/3
f 41/12/3 74/9/3 43/13/3
f 50/2/3 38/1/3 51/3/3
f 92/2/3 79/1/3 86/3/3
f 78/5/3 79/4/3 92/6/3
f 14/2/3 111/1/3 15/3/3
f 110/5/3 111/4/3 14/6/3
f 10/2/3 107/1/3 11/3/3
f 106/5/3 107/4/3 10/6/3
f 46/2/3 34/1/3 47/3/3
f 40/5/3 34/4/3 46/6/3
f 67/2/3 56/1/3 62/3/3
f 67/5/3 62/4/3 7/6/3
f 60/5/3 56/4/3 67/6/3
f 6/2/3 67/1/3 7/3/3
f 7/2/3 62/1/3 2/3/3
f 66/5/3 67/4/3 6/6/3
f 7/5/3 2/4/3 76/6/3
f 62/5/3 63/4/3 2/6/3
f 76/2/3 2/1/3 72/3/3
f 2/2/3 63/1/3 3/3/3
f 81/1/4 91/2/4 88/3/4
f 81/4/4 84/5/4 91/6/4
f 113/1/4 20/2/4 17/3/4
f 113/4/4 116/5/4 20/6/4
f 117/1/4 24/2/4 21/3/4
f 117/4/4 120/5/4 24/6/4
f 36/1/4 52/2/4 49/3/4
f 36/4/4 39/5/4 52/6/4
f 77/1/4 96/2/4 89/3/4
f 89/4/4 96/25/4 57/6/4
f 77/4/4 80/5/4 96/6/4
f 96/4/4 94/5/4 57/6/4
f 53/3/4 89/26/4 57/12/4
f 53/17/4 85/7/4 89/18/4
f 101/7/4 109/27/4 29/3/4
f 109/9/4 13/28/4 29/13/4
f 101/4/4 104/5/4 109/6/4
f 13/9/4 32/12/4 29/13/4
f 109/1/4 16/2/4 13/3/4
f 109/4/4 112/5/4 16/6/4
f 108/17/4 97/7/4 100/18/4
f 28/12/4 108/29/4 100/5/4
f 12/30/4 108/1/4 28/2/4
f 12/1/4 28/2/4 25/3/4
f 105/4/4 108/5/4 12/6/4
f 105/1/4 12/2/4 9/3/4
f 69/1/4 37/2/4 33/3/4
f 69/7/4 73/5/4 37/31/4
f 73/9/4 44/32/4 37/13/4
f 37/4/4 44/5/4 48/6/4
f 73/9/4 42/12/4 44/13/4
f 37/1/4 48/2/4 45/3/4
f 54/1/4 65/2/4 64/3/4
f 64/4/4 65/5/4 5/6/4
f 54/4/4 59/5/4 65/6/4
f 65/1/4 8/2/4 5/3/4
f 64/1/4 5/2/4 4/3/4
f 65/4/4 68/5/4 8/6/4
f 4/4/4 5/5/4 75/6/4
f 61/4/4 64/5/4 4/6/4
f 4/1/4 75/2/4 70/3/4
f 61/1/4 4/2/4 1/3/4
f 56/1/5 64/2/5 62/3/5
f 56/4/5 54/5/5 64/6/5
f 2/1/5 70/2/5 72/3/5
f 2/4/5 4/5/5 70/6/5
f 83/1/5 88/2/5 90/3/5
f 83/4/5 81/5/5 88/6/5
f 79/1/5 89/2/5 86/3/5
f 79/4/5 77/5/5 89/6/5
f 34/1/5 45/2/5 47/3/5
f 34/4/5 37/5/5 45/6/5
f 38/1/5 49/2/5 51/3/5
f 38/4/5 36/5/5 49/6/5
f 87/1/5 53/2/5 55/3/5
f 87/4/5 85/5/5 53/6/5
f 71/1/5 33/2/5 35/3/5
f 71/4/5 69/5/5 33/6/5
f 99/1/5 120/2/5 118/3/5
f 99/7/5 97/5/5 120/33/5
f 97/21/5 106/34/5 120/13/5
f 120/4/5 106/5/5 10/6/5
f 97/9/5 108/12/5 106/13/5
f 120/1/5 10/2/5 24/3/5
f 24/4/5 10/35/5 25/36/5
f 10/4/5 12/5/5 25/6/5
f 27/3/5 24/23/5 25/12/5
f 27/17/5 22/7/5 24/18/5
f 119/1/5 21/2/5 23/3/5
f 119/4/5 117/5/5 21/6/5
f 107/1/5 9/2/5 11/3/5
f 107/4/5 105/5/5 9/6/5
f 103/7/5 66/37/5 31/3/5
f 66/9/5 6/38/5 31/11/5
f 103/7/5 101/5/5 66/33/5
f 6/23/5 29/12/5 31/3/5
f 101/21/5 68/34/5 66/13/5
f 6/4/5 8/35/5 29/36/5
f 68/39/5 101/5/5 29/12/5
f 8/16/5 68/1/5 29/24/5
f 65/2/6 60/1/6 67/3/6
f 59/5/6 60/4/6 65/6/6
f 75/2/6 7/1/6 76/3/6
f 5/5/6 7/4/6 75/6/6
f 63/37/6 98/7/6 26/3/6
f 3/38/6 63/9/6 26/11/6
f 100/5/6 98/7/6 63/33/6
f 28/12/6 3/23/6 26/3/6
f 61/34/6 100/21/6 63/13/6
f 1/35/6 3/4/6 28/36/6
f 100/5/6 61/39/6 28/12/6
f 61/1/6 1/16/6 28/24/6
f 20/2/6 114/1/6 18/3/6
f 116/5/6 114/4/6 20/6/6
f 16/2/6 110/1/6 14/3/6
f 112/5/6 110/4/6 16/6/6
f 113/2/6 102/1/6 115/3/6
f 104/5/6 102/7/6 113/33/6
f 111/34/6 104/21/6 113/13/6
f 111/5/6 113/4/6 15/6/6
f 109/12/6 104/9/6 111/13/6
f 15/2/6 113/1/6 17/3/6
f 15/35/6 17/4/6 32/36/6
f 13/5/6 15/4/6 32/6/6
f 17/23/6 30/3/6 32/12/6
f 19/7/6 30/17/6 17/18/6
f 57/2/6 93/1/6 58/3/6
f 94/5/6 93/4/6 57/6/6
f 42/2/6 74/1/6 41/3/6
f 73/5/6 74/4/6 42/6/6
f 91/2/6 82/1/6 95/3/6
f 84/5/6 82/4/6 91/6/6
f 96/2/6 78/1/6 92/3/6
f 80/5/6 78/4/6 96/6/6
f 48/2/6 40/1/6 46/3/6
f 44/5/6 40/4/6 48/6/6
f 52/2/6 43/1/6 50/3/6
f 39/5/6 43/4/6 52/6/6
