
v -0.500000 0.180000 0.060000
v -0.500000 0.140000 -0.060000
v -0.500000 0.140000 0.060000
v -0.500000 0.020000 -0.060000
v -0.500000 0.180000 -0.060000
v -0.500000 0.020000 -0.100000
v -0.500000 0.020000 0.060000
v -0.500000 0.140000 -0.100000
v -0.500000 -0.020000 -0.060000
v -0.500000 0.140000 0.100000
v -0.500000 -0.020000 0.060000
v -0.500000 0.020000 0.100000
v 0.500000 0.180000 0.060000
v 0.500000 0.140000 -0.060000
v 0.500000 0.140000 0.060000
v 0.500000 0.020000 -0.060000
v 0.500000 0.180000 -0.060000
v 0.500000 0.020000 -0.100000
v 0.500000 0.020000 0.060000
v 0.500000 0.140000 -0.100000
v 0.500000 -0.020000 -0.060000
v 0.500000 0.140000 0.100000
v 0.500000 -0.020000 0.060000
v 0.500000 0.020000 0.100000
vt 0.500354 0.999646
vt 0.999293 0.999646
vt 0.500354 0.500707
vt 0.250354 0.000707
vt 0.250354 0.749646
vt 0.999293 0.749646
vn -1.000000 0.000000 0.000000
vn 1.000000 0.000000 0.000000
vn 0.000000 -1.000000 0.000000
vn 0.000000 1.000000 0.000000
vn 0.000000 0.000000 1.000000
vn 0.000000 0.000000 -1.000000

s off
f 1/1/1 2/2/1 3/3/1
f 3/4/1 2/5/1 4/6/1
f 1/1/1 5/2/1 2/3/1
f 2/1/1 6/2/1 4/3/1
f 3/6/1 4/4/1 7/5/1
f 2/1/1 8/2/1 6/3/1
f 7/1/1 4/2/1 9/3/1
f 10/1/1 3/2/1 7/3/1
f 7/1/1 9/2/1 11/3/1
f 10/1/1 7/2/1 12/3/1
f 14/2/2 13/1/2 15/3/2
f 14/5/2 15/4/2 16/6/2
f 17/2/2 13/1/2 14/3/2
f 18/2/2 14/1/2 16/3/2
f 16/4/2 15/6/2 19/5/2
f 20/2/2 14/1/2 18/3/2
f 16/2/2 19/1/2 21/3/2
f 15/2/2 22/1/2 19/3/2
f 21/2/2 19/1/2 23/3/2
f 19/2/2 22/1/2 24/3/2
f 9/2/3 23/1/3 11/3/3
f 21/2/3 23/1/3 9/3/3
f 7/2/3 24/1/3 12/3/3
f 19/2/3 24/1/3 7/3/3
f 6/2/3 16/1/3 4/3/3
f 18/2/3 16/1/3 6/3/3
f 13/1/4 5/2/4 1/3/4
f 13/1/4 17/2/4 5/3/4
f 22/1/4 3/2/4 10/3/4
f 22/1/4 15/2/4 3/3/4
f 14/1/4 8/2/4 2/3/4
f 14/1/4 20/2/4 8/3/4
f 23/1/5 7/2/5 11/3/5
f 23/1/5 19/2/5 7/3/5
f 15/1/5 1/2/5 3/3/5
f 15/1/5 13/2/5 1/3/5
f 24/1/5 10/2/5 12/3/5
f 24/1/5 22/2/5 10/3/5
f 8/2/6 18/1/6 6/3/6
f 20/2/6 18/1/6 8/3/6
f 4/2/6 21/1/6 9/3/6
f 16/2/6 21/1/6 4/3/6
f 5/2/6 14/1/6 2/3/6
f 17/2/6 14/1/6 5/3/6
