
v -0.060000 0.060000 -0.300000
v -0.060000 -0.060000 -0.340000
v -0.060000 -0.060000 -0.300000
v -0.060000 0.060000 -0.340000
v 0.140000 0.140000 -0.300000
v 0.140000 -0.140000 -0.460000
v 0.140000 -0.140000 -0.300000
v 0.140000 0.140000 -0.460000
v -0.220000 0.460000 0.220000
v -0.220000 0.420000 -0.180000
v -0.220000 0.420000 0.220000
v -0.220000 0.460000 -0.180000
v -0.220000 0.220000 -0.340000
v -0.220000 -0.220000 -0.460000
v -0.220000 -0.220000 -0.340000
v -0.220000 0.220000 -0.460000
v -0.220000 0.220000 0.460000
v -0.220000 -0.220000 0.420000
v -0.220000 -0.220000 0.460000
v -0.220000 0.220000 0.420000
v -0.220000 -0.420000 0.220000
v -0.220000 -0.460000 -0.180000
v -0.220000 -0.460000 0.220000
v -0.220000 -0.420000 -0.180000
v 0.380000 0.380000 -0.340000
v 0.380000 -0.380000 -0.380000
v 0.380000 -0.380000 -0.340000
v 0.380000 0.380000 -0.380000
v -0.420000 0.420000 0.420000
v -0.420000 0.220000 0.220000
v -0.420000 -0.420000 0.420000
v -0.420000 -0.220000 0.220000
v -0.420000 0.420000 -0.380000
v -0.420000 -0.420000 -0.380000
v -0.420000 0.220000 -0.180000
v -0.420000 -0.220000 -0.180000
v -0.460000 0.220000 0.220000
v -0.460000 -0.220000 -0.180000
v -0.460000 -0.220000 0.220000
v -0.460000 0.220000 -0.180000
v 0.060000 0.060000 -0.300000
v 0.060000 -0.060000 -0.340000
v 0.060000 -0.060000 -0.300000
v 0.060000 0.060000 -0.340000
v 0.220000 0.460000 0.220000
v 0.220000 0.420000 -0.180000
v 0.220000 0.420000 0.220000
v 0.220000 0.460000 -0.180000
v 0.220000 0.220000 -0.340000
v 0.220000 -0.220000 -0.460000
v 0.220000 -0.220000 -0.340000
v 0.220000 0.220000 -0.460000
v 0.220000 0.220000 0.460000
v 0.220000 -0.220000 0.420000
v 0.220000 -0.220000 0.460000
v 0.220000 0.220000 0.420000
v 0.220000 -0.420000 0.220000
v 0.220000 -0.460000 -0.180000
v 0.220000 -0.460000 0.220000
v 0.220000 -0.420000 -0.180000
v -0.140000 0.140000 -0.300000
v -0.140000 -0.140000 -0.460000
v -0.140000 -0.140000 -0.300000
v -0.140000 0.140000 -0.460000
v 0.420000 0.420000 0.420000
v 0.420000 0.220000 0.220000
v 0.420000 -0.420000 0.420000
v 0.420000 -0.220000 0.220000
v 0.420000 0.420000 -0.380000
v 0.420000 -0.420000 -0.380000
v 0.420000 0.220000 -0.180000
v 0.420000 -0.220000 -0.180000
v 0.460000 0.220000 0.220000
v 0.460000 -0.220000 -0.180000
v 0.460000 -0.220000 0.220000
v 0.460000 0.220000 -0.180000
v -0.380000 0.380000 -0.340000
v -0.380000 -0.380000 -0.380000
v -0.380000 -0.380000 -0.340000
v -0.380000 0.380000 -0.380000
vt 0.000064 0.099929
vt 0.090781 0.099929
vt 0.000064 0.000141
vt 0.181882 0.999929
vt 0.272599 0.999929
vt 0.181882 0.900141
vt 0.999936 0.999859
vt 0.999936 0.000071
vt 0.000064 0.999859
vt 0.363508 0.999929
vt 0.272792 0.999929
vt 0.272792 0.900141
vn -1.000000 0.000000 0.000000
vn 1.000000 0.000000 0.000000
vn 0.000000 -1.000000 0.000000
vn 0.000000 1.000000 0.000000
vn 0.000000 0.000000 1.000000
vn 0.000000 0.000000 -1.000000

s off
f 1/1/1 2/2/1 3/3/1
f 1/1/1 4/2/1 2/3/1
f 5/1/1 6/2/1 7/3/1
f 5/1/1 8/2/1 6/3/1
f 9/1/1 10/2/1 11/3/1
f 9/1/1 12/2/1 10/3/1
f 13/1/1 14/2/1 15/3/1
f 13/1/1 16/2/1 14/3/1
f 17/1/1 18/2/1 19/3/1
f 17/1/1 20/2/1 18/3/1
f 21/1/1 22/2/1 23/3/1
f 21/1/1 24/2/1 22/3/1
f 25/4/1 26/5/1 27/6/1
f 25/4/1 28/5/1 26/6/1
f 29/4/1 30/5/1 31/6/1
f 30/4/1 32/5/1 31/6/1
f 29/4/1 33/5/1 30/6/1
f 32/4/1 34/5/1 31/6/1
f 33/4/1 35/5/1 30/6/1
f 32/4/1 36/5/1 34/6/1
f 35/4/1 33/5/1 34/6/1
f 36/4/1 35/5/1 34/6/1
f 37/3/1 38/7/1 39/8/1
f 37/9/1 40/3/1 38/8/1
f 42/2/2 41/1/2 43/3/2
f 44/2/2 41/1/2 42/3/2
f 46/2/2 45/1/2 47/3/2
f 48/2/2 45/1/2 46/3/2
f 50/2/2 49/1/2 51/3/2
f 52/2/2 49/1/2 50/3/2
f 54/2/2 53/1/2 55/3/2
f 56/2/2 53/1/2 54/3/2
f 58/2/2 57/1/2 59/3/2
f 60/2/2 57/1/2 58/3/2
f 62/2/2 61/1/2 63/3/2
f 64/2/2 61/1/2 62/3/2
f 66/5/2 65/4/2 67/6/2
f 68/5/2 66/4/2 67/6/2
f 69/5/2 65/4/2 66/6/2
f 70/5/2 68/4/2 67/6/2
f 71/5/2 69/4/2 66/6/2
f 72/5/2 68/4/2 70/6/2
f 69/5/2 71/4/2 70/6/2
f 71/5/2 72/4/2 70/6/2
f 74/7/2 73/3/2 75/8/2
f 76/3/2 73/9/2 74/8/2
f 78/5/2 77/4/2 79/6/2
f 80/5/2 77/4/2 78/6/2
f 57/5/3 67/4/3 31/6/3
f 21/5/3 57/4/3 31/6/3
f 70/5/3 67/4/3 57/6/3
f 34/5/3 21/4/3 31/6/3
f 60/5/3 70/4/3 57/6/3
f 24/5/3 21/4/3 34/6/3
f 70/5/3 60/4/3 34/6/3
f 60/5/3 24/4/3 34/6/3
f 22/2/3 59/1/3 23/3/3
f 58/2/3 59/1/3 22/3/3
f 80/5/3 25/4/3 77/6/3
f 28/5/3 25/4/3 80/6/3
f 72/2/3 75/1/3 68/3/3
f 74/2/3 75/1/3 72/3/3
f 14/2/3 51/1/3 15/3/3
f 50/2/3 51/1/3 14/3/3
f 18/2/3 55/1/3 19/3/3
f 54/2/3 55/1/3 18/3/3
f 38/2/3 32/1/3 39/3/3
f 36/2/3 32/1/3 38/3/3
f 2/2/3 43/1/3 3/3/3
f 42/2/3 43/1/3 2/3/3
f 64/2/3 5/1/3 61/3/3
f 8/2/3 5/1/3 64/3/3
f 27/4/4 78/5/4 79/6/4
f 27/4/4 26/5/4 78/6/4
f 65/4/4 47/5/4 29/6/4
f 47/4/4 11/5/4 29/6/4
f 65/4/4 69/5/4 47/6/4
f 11/4/4 33/5/4 29/6/4
f 69/4/4 46/5/4 47/6/4
f 11/4/4 10/5/4 33/6/4
f 46/4/4 69/5/4 33/6/4
f 10/4/4 46/5/4 33/6/4
f 45/1/4 12/2/4 9/3/4
f 45/1/4 48/2/4 12/3/4
f 7/1/4 62/2/4 63/3/4
f 7/1/4 6/2/4 62/3/4
f 41/1/4 4/2/4 1/3/4
f 41/1/4 44/2/4 4/3/4
f 73/1/4 71/2/4 66/3/4
f 73/1/4 76/2/4 71/3/4
f 49/1/4 16/2/4 13/3/4
f 49/1/4 52/2/4 16/3/4
f 53/1/4 20/2/4 17/3/4
f 53/1/4 56/2/4 20/3/4
f 30/1/4 40/2/4 37/3/4
f 30/1/4 35/2/4 40/3/4
f 75/1/5 66/2/5 68/3/5
f 75/1/5 73/2/5 66/3/5
f 47/1/5 9/2/5 11/3/5
f 47/1/5 45/2/5 9/3/5
f 59/1/5 21/2/5 23/3/5
f 59/1/5 57/2/5 21/3/5
f 32/1/5 37/2/5 39/3/5
f 32/1/5 30/2/5 37/3/5
f 67/4/5 54/5/5 31/6/5
f 54/4/5 18/5/5 31/6/5
f 67/4/5 65/5/5 54/6/5
f 18/4/5 29/5/5 31/6/5
f 65/4/5 56/5/5 54/6/5
f 18/4/5 20/5/5 29/6/5
f 56/4/5 65/5/5 29/6/5
f 20/4/5 56/5/5 29/6/5
f 55/1/5 17/2/5 19/3/5
f 55/1/5 53/2/5 17/3/5
f 71/2/6 74/1/6 72/3/6
f 76/2/6 74/1/6 71/3/6
f 12/2/6 46/1/6 10/3/6
f 48/2/6 46/1/6 12/3/6
f 24/2/6 58/1/6 22/3/6
f 60/2/6 58/1/6 24/3/6
f 40/2/6 36/1/6 38/3/6
f 35/2/6 36/1/6 40/3/6
f 43/10/6 7/11/6 63/12/6
f 3/10/6 43/11/6 63/12/6
f 5/10/6 7/11/6 43/12/6
f 61/10/6 3/11/6 63/12/6
f 41/10/6 5/11/6 43/12/6
f 1/10/6 3/11/6 61/12/6
f 5/10/6 41/11/6 61/12/6
f 41/10/6 1/11/6 61/12/6
f 51/2/6 27/1/6 79/3/6
f 15/2/6 51/1/6 79/3/6
f 25/2/6 27/1/6 51/3/6
f 77/2/6 15/1/6 79/3/6
f 49/2/6 25/1/6 51/3/6
f 13/2/6 15/1/6 77/3/6
f 25/2/6 49/1/6 77/3/6
f 49/2/6 13/1/6 77/3/6
f 4/2/6 42/1/6 2/3/6
f 44/2/6 42/1/6 4/3/6
f 26/5/6 70/4/6 34/6/6
f 78/5/6 26/4/6 34/6/6
f 69/5/6 70/4/6 26/6/6
f 33/5/6 78/4/6 34/6/6
f 28/5/6 69/4/6 26/6/6
f 80/5/6 78/4/6 33/6/6
f 69/5/6 28/4/6 33/6/6
f 28/5/6 80/4/6 33/6/6
f 6/2/6 50/1/6 14/3/6
f 62/2/6 6/1/6 14/3/6
f 52/2/6 50/1/6 6/3/6
f 16/2/6 62/1/6 14/3/6
f 8/2/6 52/1/6 6/3/6
f 64/2/6 62/1/6 16/3/6
f 52/2/6 8/1/6 16/3/6
f 8/2/6 64/1/6 16/3/6
