v -0.050000 0.250000 0.150000
v -0.050000 0.150000 0.050000
v -0.050000 -0.050000 0.150000
v -0.050000 0.050000 0.050000
v -0.050000 0.250000 -0.150000
v -0.050000 -0.050000 -0.150000
v -0.050000 0.150000 -0.050000
v -0.050000 0.050000 -0.050000
v -0.250000 0.250000 0.150000
v -0.250000 0.150000 0.050000
v -0.250000 -0.050000 0.150000
v -0.250000 0.050000 0.050000
v -0.250000 0.250000 -0.150000
v -0.250000 -0.050000 -0.150000
v -0.250000 0.150000 -0.050000
v -0.250000 0.050000 -0.050000
v -0.650000 0.150000 0.050000
v -0.650000 0.050000 -0.050000
v -0.650000 0.050000 0.050000
v -0.650000 0.150000 -0.050000
v -0.150000 0.250000 0.150000
v -0.150000 0.150000 0.050000
v -0.150000 -0.050000 0.150000
v -0.150000 0.050000 0.050000
v -0.150000 0.250000 -0.150000
v -0.150000 -0.050000 -0.150000
v -0.150000 0.150000 -0.050000
v -0.150000 0.050000 -0.050000
v 0.350000 0.250000 0.150000
v 0.350000 -0.050000 -0.150000
v 0.350000 -0.050000 0.150000
v 0.350000 0.250000 -0.150000
vt 0.000354 0.999293
vt 0.499293 0.999293
vt 0.000354 0.001414
vt 0.500354 0.999293
vt 0.999293 0.999293
vt 0.500354 0.001414
vn -1.000000 0.000000 0.000000
vn 1.000000 0.000000 0.000000
vn 0.000000 -1.000000 0.000000
vn 0.000000 1.000000 0.000000
vn 0.000000 0.000000 1.000000
vn 0.000000 0.000000 -1.000000

s off
f 1/1/1 2/2/1 3/3/1
f 2/1/1 4/2/1 3/3/1
f 1/1/1 5/2/1 2/3/1
f 4/1/1 6/2/1 3/3/1
f 5/1/1 7/2/1 2/3/1
f 4/1/1 8/2/1 6/3/1
f 7/1/1 5/2/1 6/3/1
f 8/1/1 7/2/1 6/3/1
f 9/1/1 10/2/1 11/3/1
f 10/1/1 12/2/1 11/3/1
f 9/1/1 13/2/1 10/3/1
f 12/1/1 14/2/1 11/3/1
f 13/1/1 15/2/1 10/3/1
f 12/1/1 16/2/1 14/3/1
f 15/1/1 13/2/1 14/3/1
f 16/1/1 15/2/1 14/3/1
f 17/4/1 18/5/1 19/6/1
f 17/4/1 20/5/1 18/6/1
f 22/2/2 21/1/2 23/3/2
f 24/2/2 22/1/2 23/3/2
f 25/2/2 21/1/2 22/3/2
f 26/2/2 24/1/2 23/3/2
f 27/2/2 25/1/2 22/3/2
f 28/2/2 24/1/2 26/3/2
f 25/2/2 27/1/2 26/3/2
f 27/2/2 28/1/2 26/3/2
f 30/2/2 29/1/2 31/3/2
f 32/2/2 29/1/2 30/3/2
f 6/2/3 31/1/3 3/3/3
f 30/2/3 31/1/3 6/3/3
f 14/2/3 23/1/3 11/3/3
f 26/2/3 23/1/3 14/3/3
f 28/2/3 4/1/3 24/3/3
f 8/2/3 4/1/3 28/3/3
f 18/5/3 12/4/3 19/6/3
f 16/5/3 12/4/3 18/6/3
f 29/1/4 5/2/4 1/3/4
f 29/1/4 32/2/4 5/3/4
f 21/1/4 13/2/4 9/3/4
f 21/1/4 25/2/4 13/3/4
f 2/1/4 27/2/4 22/3/4
f 2/1/4 7/2/4 27/3/4
f 10/4/4 20/5/4 17/6/4
f 10/4/4 15/5/4 20/6/4
f 4/1/5 22/2/5 24/3/5
f 4/1/5 2/2/5 22/3/5
f 12/4/5 17/5/5 19/6/5
f 12/4/5 10/5/5 17/6/5
f 31/1/5 1/2/5 3/3/5
f 31/1/5 29/2/5 1/3/5
f 23/1/5 9/2/5 11/3/5
f 23/1/5 21/2/5 9/3/5
f 27/2/6 8/1/6 28/3/6
f 7/2/6 8/1/6 27/3/6
f 20/5/6 16/4/6 18/6/6
f 15/5/6 16/4/6 20/6/6
f 5/2/6 30/1/6 6/3/6
f 32/2/6 30/1/6 5/3/6
f 13/2/6 26/1/6 14/3/6
f 25/2/6 26/1/6 13/3/6
