# Blender v2.75 (sub 0) OBJ File: 'spike.blend'
# www.blender.org
mtllib spike.mtl
o Cube.005
v 0.500000 -0.500000 0.500000
v 0.500000 0.500000 0.500000
v -0.500000 0.500000 0.500000
v -0.500000 -0.500000 0.500000
v 0.500000 -0.500000 -0.500000
v 0.500000 0.500000 -0.500000
v -0.500000 0.500000 -0.500000
v -0.500000 -0.500000 -0.500000
v -0.000000 -0.000000 -0.774321
v -0.400000 0.400000 -0.493920
v -0.400000 -0.400000 -0.493920
v 0.400000 0.400000 -0.493920
v 0.400000 -0.400000 -0.493920
v -0.000000 0.000000 0.774321
v -0.400000 -0.400000 0.493920
v -0.400000 0.400000 0.493920
v 0.400000 -0.400000 0.493920
v 0.400000 0.400000 0.493920
v -0.774321 -0.000000 -0.000000
v -0.493920 -0.400000 0.400000
v -0.493920 -0.400000 -0.400000
v -0.493920 0.400000 0.400000
v -0.493920 0.400000 -0.400000
v 0.774321 -0.000000 -0.000000
v 0.493920 0.400000 0.400000
v 0.493920 0.400000 -0.400000
v 0.493920 -0.400000 0.400000
v 0.493920 -0.400000 -0.400000
v -0.000000 -0.774321 -0.000000
v 0.400000 -0.493920 0.400000
v 0.400000 -0.493920 -0.400000
v -0.400000 -0.493920 0.400000
v -0.400000 -0.493920 -0.400000
v -0.000000 0.774321 -0.000000
v -0.400000 0.493920 0.400000
v -0.400000 0.493920 -0.400000
v 0.400000 0.493920 0.400000
v 0.400000 0.493920 -0.400000
vt 0.000000 0.000000
vt 0.271739 0.000000
vt 0.271739 0.277778
vt 0.543478 0.277778
vt 0.760869 0.000000
vt 0.760869 0.277778
vt 0.217391 0.277778
vt 0.217391 0.555555
vt 0.000000 0.555555
vt 0.434783 0.555555
vt 0.434783 0.277778
vt 0.652174 0.277778
vt 0.434783 0.777778
vt 0.652174 0.555556
vt 0.108696 0.666667
vt 0.217391 0.777778
vt 0.000000 0.777778
vt 0.869565 0.500000
vt 0.652174 0.500000
vt 0.326087 0.666667
vt 0.760870 0.222222
vt 0.934782 0.000000
vt 0.739130 0.666667
vt 0.826087 0.777778
vt 0.652174 0.777778
vt 0.826087 0.555556
vt 1.000000 0.555556
vt 1.000000 0.777778
vt 0.782609 0.888889
vt 0.695652 0.777778
vt 0.869565 0.777778
vt 0.695652 1.000000
vt 0.869565 1.000000
vt 0.347826 1.000000
vt 0.173913 1.000000
vt 0.173913 0.777778
vt 0.434783 0.888889
vt 0.347826 0.777778
vt 0.521739 0.777778
vt 0.521739 1.000000
vt 0.086957 0.888889
vt 0.000000 1.000000
vt 0.000000 0.277778
vt 0.543478 0.000000
vt 0.869565 0.277778
vt 0.934782 0.222222
vn 0.000000 0.000000 1.000000
vn 0.000000 0.000000 -1.000000
vn 1.000000 0.000000 -0.000000
vn -0.000000 1.000000 -0.000000
vn -1.000000 -0.000000 0.000000
vn 0.000000 -1.000000 -0.000000
vn -0.574000 0.000000 -0.818800
vn 0.574000 0.000000 -0.818800
vn 0.000000 0.574000 -0.818800
vn 0.000000 -0.574000 -0.818800
vn -0.574000 0.000000 0.818800
vn 0.574000 0.000000 0.818800
vn 0.000000 -0.574000 0.818800
vn 0.000000 0.574000 0.818800
vn -0.818800 -0.574000 0.000000
vn -0.818800 0.574000 -0.000000
vn -0.818800 0.000000 0.574000
vn -0.818800 -0.000000 -0.574000
vn 0.818800 0.574000 -0.000000
vn 0.818800 -0.574000 0.000000
vn 0.818800 0.000000 0.574000
vn 0.818800 -0.000000 -0.574000
vn 0.574000 -0.818800 0.000000
vn -0.574000 -0.818800 0.000000
vn -0.000000 -0.818800 0.574000
vn -0.000000 -0.818800 -0.574000
vn -0.574000 0.818800 0.000000
vn 0.574000 0.818800 0.000000
vn 0.000000 0.818800 0.574000
vn 0.000000 0.818800 -0.574000
usemtl Material.002
s off
f 2/1/1 3/2/1 4/3/1
f 8/4/2 7/3/2 6/2/2
f 5/5/3 6/6/3 2/4/3
f 6/7/4 7/8/4 3/9/4
f 7/10/5 8/11/5 4/12/5
f 1/11/6 4/10/6 8/8/6
f 13/13/1 12/10/1 10/14/1
f 9/15/7 11/16/7 10/17/7
f 13/8/8 9/15/8 12/9/8
f 9/15/9 10/17/9 12/9/9
f 9/15/10 13/8/10 11/16/10
f 18/18/2 17/19/2 15/12/2
f 14/20/11 16/10/11 15/13/11
f 18/8/12 14/20/12 17/16/12
f 14/20/13 15/13/13 17/16/13
f 14/20/14 18/8/14 16/10/14
f 21/21/3 23/5/3 22/22/3
f 19/23/15 21/24/15 20/25/15
f 23/26/16 19/23/16 22/14/16
f 19/23/17 20/25/17 22/14/17
f 19/23/18 23/26/18 21/24/18
f 28/26/5 27/27/5 25/28/5
f 24/29/19 26/30/19 25/31/19
f 28/32/20 24/29/20 27/33/20
f 24/29/21 25/31/21 27/33/21
f 24/29/22 28/32/22 26/30/22
f 33/34/4 32/35/4 30/36/4
f 29/37/23 31/38/23 30/39/23
f 33/34/24 29/37/24 32/40/24
f 29/37/25 30/39/25 32/40/25
f 29/37/26 33/34/26 31/38/26
f 38/39/6 37/30/6 35/32/6
f 34/41/27 36/35/27 35/42/27
f 38/36/28 34/41/28 37/17/28
f 34/41/29 35/42/29 37/17/29
f 34/41/30 38/36/30 36/35/30
f 1/43/1 2/1/1 4/3/1
f 5/44/2 8/4/2 6/2/2
f 1/44/3 5/5/3 2/4/3
f 2/43/4 6/7/4 3/9/4
f 3/14/5 7/10/5 4/12/5
f 5/7/6 1/11/6 8/8/6
f 11/25/1 13/13/1 10/14/1
f 16/45/2 18/18/2 15/12/2
f 20/46/3 21/21/3 22/22/3
f 26/24/5 28/26/5 25/28/5
f 31/38/4 33/34/4 30/36/4
f 36/40/6 38/39/6 35/32/6
