
v -0.020000 0.215000 0.020000
v -0.020000 -0.025000 -0.020000
v -0.020000 -0.025000 0.020000
v -0.020000 0.215000 -0.020000
v -0.060000 -0.025000 0.060000
v -0.060000 -0.065000 -0.060000
v -0.060000 -0.065000 0.060000
v -0.060000 -0.025000 -0.060000
v -0.100000 -0.185000 0.420000
v -0.100000 -0.265000 0.380000
v -0.100000 -0.345000 0.420000
v -0.100000 -0.345000 0.380000
v -0.100000 -0.185000 0.340000
v -0.100000 -0.265000 0.340000
v -0.100000 -0.185000 -0.340000
v -0.100000 -0.265000 -0.380000
v -0.100000 -0.265000 -0.340000
v -0.100000 -0.185000 -0.420000
v -0.100000 -0.345000 -0.420000
v -0.100000 -0.345000 -0.380000
v -0.300000 -0.065000 0.300000
v -0.300000 -0.145000 -0.300000
v -0.300000 -0.145000 0.300000
v -0.300000 -0.065000 -0.300000
v -0.340000 -0.145000 0.340000
v -0.340000 -0.185000 0.100000
v -0.340000 -0.265000 0.340000
v -0.340000 -0.265000 0.100000
v -0.340000 -0.145000 -0.340000
v -0.340000 -0.185000 -0.100000
v -0.340000 -0.265000 -0.340000
v -0.340000 -0.265000 -0.100000
v -0.380000 -0.265000 0.380000
v -0.380000 -0.345000 0.100000
v -0.380000 -0.345000 0.380000
v -0.380000 -0.265000 0.100000
v -0.380000 -0.265000 -0.100000
v -0.380000 -0.345000 -0.380000
v -0.380000 -0.345000 -0.100000
v -0.380000 -0.265000 -0.380000
v -0.420000 -0.185000 0.100000
v -0.420000 -0.345000 -0.100000
v -0.420000 -0.345000 0.100000
v -0.420000 -0.465000 -0.420000
v -0.420000 -0.185000 -0.100000
v -0.420000 -0.345000 -0.420000
v -0.420000 -0.465000 0.420000
v -0.420000 -0.345000 0.420000
v 0.060000 -0.025000 0.060000
v 0.060000 -0.065000 -0.060000
v 0.060000 -0.065000 0.060000
v 0.060000 -0.025000 -0.060000
v 0.020000 0.215000 0.020000
v 0.020000 -0.025000 -0.020000
v 0.020000 -0.025000 0.020000
v 0.020000 0.215000 -0.020000
v 0.100000 -0.185000 0.420000
v 0.100000 -0.265000 0.380000
v 0.100000 -0.345000 0.420000
v 0.100000 -0.345000 0.380000
v 0.100000 -0.185000 0.340000
v 0.100000 -0.265000 0.340000
v 0.100000 -0.185000 -0.340000
v 0.100000 -0.265000 -0.380000
v 0.100000 -0.265000 -0.340000
v 0.100000 -0.185000 -0.420000
v 0.100000 -0.345000 -0.420000
v 0.100000 -0.345000 -0.380000
v 0.300000 -0.065000 0.300000
v 0.300000 -0.145000 -0.300000
v 0.300000 -0.145000 0.300000
v 0.300000 -0.065000 -0.300000
v 0.340000 -0.145000 0.340000
v 0.340000 -0.185000 0.100000
v 0.340000 -0.265000 0.340000
v 0.340000 -0.265000 0.100000
v 0.340000 -0.145000 -0.340000
v 0.340000 -0.185000 -0.100000
v 0.340000 -0.265000 -0.340000
v 0.340000 -0.265000 -0.100000
v 0.380000 -0.265000 0.380000
v 0.380000 -0.345000 0.100000
v 0.380000 -0.345000 0.380000
v 0.380000 -0.265000 0.100000
v 0.380000 -0.265000 -0.100000
v 0.380000 -0.345000 -0.380000
v 0.380000 -0.345000 -0.100000
v 0.380000 -0.265000 -0.380000
v 0.420000 -0.185000 0.100000
v 0.420000 -0.345000 -0.100000
v 0.420000 -0.345000 0.100000
v 0.420000 -0.465000 -0.420000
v 0.420000 -0.185000 -0.100000
v 0.420000 -0.345000 -0.420000
v 0.420000 -0.465000 0.420000
v 0.420000 -0.345000 0.420000
vt 0.333569 0.999912
vt 0.666195 0.999912
vt 0.333569 0.875177
vt 0.333098 0.749912
vt 0.000471 0.749912
vt 0.333098 0.625177
vt 0.832821 0.708413
vt 0.166923 0.916507
vt 0.166923 0.708413
vt 0.333006 0.541520
vt 0.333006 0.333309
vt 0.000654 0.000172
vt 0.833090 0.874829
vt 0.833090 0.718836
vt 0.167153 0.718836
vt 0.999804 0.000101
vt 0.000391 0.333351
vt 0.999804 0.874881
vn -1.000000 0.000000 0.000000
vn 1.000000 0.000000 0.000000
vn 0.000000 -1.000000 0.000000
vn 0.000000 1.000000 0.000000
vn 0.000000 0.000000 1.000000
vn 0.000000 0.000000 -1.000000

s off
f 1/1/1 2/2/1 3/3/1
f 1/1/1 4/2/1 2/3/1
f 5/1/1 6/2/1 7/3/1
f 5/1/1 8/2/1 6/3/1
f 9/4/1 10/5/1 11/6/1
f 10/4/1 12/5/1 11/6/1
f 9/4/1 13/5/1 10/6/1
f 13/4/1 14/5/1 10/6/1
f 15/4/1 16/5/1 17/6/1
f 15/4/1 18/5/1 16/6/1
f 16/4/1 18/5/1 19/6/1
f 16/4/1 19/5/1 20/6/1
f 21/4/1 22/5/1 23/6/1
f 21/4/1 24/5/1 22/6/1
f 25/4/1 26/5/1 27/6/1
f 26/4/1 28/5/1 27/6/1
f 25/4/1 29/5/1 26/6/1
f 29/4/1 30/5/1 26/6/1
f 30/4/1 29/5/1 31/6/1
f 30/4/1 31/5/1 32/6/1
f 33/4/1 34/5/1 35/6/1
f 33/4/1 36/5/1 34/6/1
f 37/4/1 38/5/1 39/6/1
f 37/4/1 40/5/1 38/6/1
f 41/7/1 42/8/1 43/9/1
f 43/10/1 42/11/1 44/12/1
f 41/13/1 45/14/1 42/15/1
f 42/4/1 46/5/1 44/6/1
f 47/16/1 43/17/1 44/18/1
f 47/4/1 48/5/1 43/6/1
f 50/2/2 49/1/2 51/3/2
f 52/2/2 49/1/2 50/3/2
f 54/2/2 53/1/2 55/3/2
f 56/2/2 53/1/2 54/3/2
f 58/5/2 57/4/2 59/6/2
f 60/5/2 58/4/2 59/6/2
f 61/5/2 57/4/2 58/6/2
f 62/5/2 61/4/2 58/6/2
f 64/5/2 63/4/2 65/6/2
f 66/5/2 63/4/2 64/6/2
f 66/5/2 64/4/2 67/6/2
f 67/5/2 64/4/2 68/6/2
f 70/5/2 69/4/2 71/6/2
f 72/5/2 69/4/2 70/6/2
f 74/5/2 73/4/2 75/6/2
f 76/5/2 74/4/2 75/6/2
f 77/5/2 73/4/2 74/6/2
f 78/5/2 77/4/2 74/6/2
f 77/5/2 78/4/2 79/6/2
f 79/5/2 78/4/2 80/6/2
f 82/5/2 81/4/2 83/6/2
f 84/5/2 81/4/2 82/6/2
f 86/5/2 85/4/2 87/6/2
f 88/5/2 85/4/2 86/6/2
f 90/8/2 89/7/2 91/9/2
f 90/11/2 91/10/2 92/12/2
f 93/14/2 89/13/2 90/15/2
f 94/5/2 90/4/2 92/6/2
f 91/17/2 95/16/2 92/18/2
f 96/5/2 95/4/2 91/6/2
f 44/5/3 95/4/3 47/6/3
f 92/5/3 95/4/3 44/6/3
f 96/4/4 83/5/4 59/6/4
f 83/4/4 60/5/4 59/6/4
f 96/4/4 91/5/4 83/6/4
f 91/4/4 82/5/4 83/6/4
f 90/4/4 86/5/4 87/6/4
f 90/4/4 94/5/4 86/6/4
f 86/4/4 94/5/4 67/6/4
f 86/4/4 67/5/4 68/6/4
f 38/4/4 20/5/4 19/6/4
f 46/4/4 38/5/4 19/6/4
f 42/4/4 38/5/4 46/6/4
f 42/4/4 39/5/4 38/6/4
f 11/4/4 35/5/4 48/6/4
f 35/4/4 43/5/4 48/6/4
f 11/4/4 12/5/4 35/6/4
f 35/4/4 34/5/4 43/6/4
f 81/4/4 75/5/4 58/6/4
f 75/4/4 62/5/4 58/6/4
f 81/4/4 84/5/4 75/6/4
f 84/4/4 76/5/4 75/6/4
f 85/4/4 79/5/4 80/6/4
f 85/4/4 88/5/4 79/6/4
f 79/4/4 88/5/4 64/6/4
f 79/4/4 64/5/4 65/6/4
f 31/4/4 17/5/4 16/6/4
f 40/4/4 31/5/4 16/6/4
f 37/4/4 31/5/4 40/6/4
f 37/4/4 32/5/4 31/6/4
f 10/4/4 27/5/4 33/6/4
f 27/4/4 36/5/4 33/6/4
f 10/4/4 14/5/4 27/6/4
f 27/4/4 28/5/4 36/6/4
f 89/4/4 78/5/4 74/6/4
f 89/4/4 93/5/4 78/6/4
f 63/4/4 18/5/4 15/6/4
f 63/4/4 66/5/4 18/6/4
f 57/4/4 13/5/4 9/6/4
f 57/4/4 61/5/4 13/6/4
f 26/4/4 45/5/4 41/6/4
f 26/4/4 30/5/4 45/6/4
f 73/4/4 71/5/4 25/6/4
f 71/4/4 23/5/4 25/6/4
f 73/4/4 77/5/4 71/6/4
f 23/4/4 29/5/4 25/6/4
f 77/4/4 70/5/4 71/6/4
f 23/4/4 22/5/4 29/6/4
f 70/4/4 77/5/4 29/6/4
f 22/4/4 70/5/4 29/6/4
f 69/4/4 51/5/4 21/6/4
f 51/4/4 7/5/4 21/6/4
f 69/4/4 72/5/4 51/6/4
f 7/4/4 24/5/4 21/6/4
f 72/4/4 50/5/4 51/6/4
f 7/4/4 6/5/4 24/6/4
f 50/4/4 72/5/4 24/6/4
f 6/4/4 50/5/4 24/6/4
f 49/1/4 55/2/4 5/3/4
f 55/1/4 3/2/4 5/3/4
f 49/1/4 52/2/4 55/3/4
f 3/1/4 8/2/4 5/3/4
f 52/1/4 54/2/4 55/3/4
f 3/1/4 2/2/4 8/3/4
f 54/1/4 52/2/4 8/3/4
f 2/1/4 54/2/4 8/3/4
f 53/1/4 4/2/4 1/3/4
f 53/1/4 56/2/4 4/3/4
f 55/1/5 1/2/5 3/3/5
f 55/1/5 53/2/5 1/3/5
f 51/1/5 5/2/5 7/3/5
f 51/1/5 49/2/5 5/3/5
f 91/4/5 84/5/5 82/6/5
f 91/4/5 89/5/5 84/6/5
f 84/4/5 89/5/5 74/6/5
f 84/4/5 74/5/5 76/6/5
f 36/4/5 28/5/5 26/6/5
f 41/4/5 36/5/5 26/6/5
f 43/4/5 36/5/5 41/6/5
f 43/4/5 34/5/5 36/6/5
f 71/4/5 21/5/5 23/6/5
f 71/4/5 69/5/5 21/6/5
f 75/4/5 61/5/5 62/6/5
f 75/4/5 73/5/5 61/6/5
f 61/4/5 73/5/5 25/6/5
f 13/4/5 61/5/5 25/6/5
f 27/4/5 13/5/5 25/6/5
f 27/4/5 14/5/5 13/6/5
f 83/4/5 58/5/5 60/6/5
f 83/4/5 81/5/5 58/6/5
f 12/4/5 33/5/5 35/6/5
f 12/4/5 10/5/5 33/6/5
f 95/16/5 59/17/5 47/18/5
f 59/10/5 11/11/5 47/12/5
f 95/4/5 96/5/5 59/6/5
f 11/4/5 48/5/5 47/6/5
f 59/8/5 9/7/5 11/9/5
f 59/15/5 57/14/5 9/13/5
f 8/2/6 50/1/6 6/3/6
f 52/2/6 50/1/6 8/3/6
f 4/2/6 54/1/6 2/3/6
f 56/2/6 54/1/6 4/3/6
f 85/5/6 90/4/6 87/6/6
f 93/5/6 90/4/6 85/6/6
f 93/5/6 85/4/6 78/6/6
f 78/5/6 85/4/6 80/6/6
f 32/5/6 37/4/6 30/6/6
f 37/5/6 45/4/6 30/6/6
f 37/5/6 42/4/6 45/6/6
f 39/5/6 42/4/6 37/6/6
f 24/5/6 70/4/6 22/6/6
f 72/5/6 70/4/6 24/6/6
f 63/5/6 79/4/6 65/6/6
f 77/5/6 79/4/6 63/6/6
f 77/5/6 63/4/6 29/6/6
f 63/5/6 15/4/6 29/6/6
f 15/5/6 31/4/6 29/6/6
f 17/5/6 31/4/6 15/6/6
f 64/5/6 86/4/6 68/6/6
f 88/5/6 86/4/6 64/6/6
f 40/5/6 20/4/6 38/6/6
f 16/5/6 20/4/6 40/6/6
f 67/17/6 92/16/6 44/18/6
f 19/11/6 67/10/6 44/12/6
f 94/5/6 92/4/6 67/6/6
f 46/5/6 19/4/6 44/6/6
f 18/7/6 67/8/6 19/9/6
f 66/14/6 67/15/6 18/13/6
