
v 0.420000 0.300000 0.140000
v 0.420000 0.340000 0.140000
v 0.420000 0.260000 0.100000
v 0.420000 0.260000 -0.100000
v 0.420000 0.220000 0.180000
v 0.420000 0.340000 -0.140000
v 0.420000 0.060000 0.100000
v 0.420000 0.300000 0.180000
v 0.420000 0.300000 -0.140000
v 0.420000 0.100000 0.180000
v 0.420000 0.220000 -0.180000
v 0.420000 0.020000 0.140000
v 0.420000 0.100000 0.260000
v 0.420000 0.300000 -0.180000
v 0.420000 0.060000 -0.100000
v 0.420000 -0.020000 0.140000
v 0.420000 0.020000 0.180000
v 0.420000 0.220000 0.380000
v 0.420000 0.100000 -0.180000
v 0.420000 -0.020000 -0.140000
v 0.420000 0.180000 0.380000
v 0.420000 0.020000 -0.140000
v 0.420000 0.100000 -0.260000
v 0.420000 0.060000 0.300000
v 0.420000 0.020000 -0.180000
v 0.420000 0.220000 -0.380000
v 0.420000 0.060000 0.260000
v 0.420000 0.140000 0.420000
v 0.420000 0.180000 -0.380000
v 0.420000 0.180000 0.420000
v 0.420000 0.140000 0.460000
v 0.420000 0.060000 -0.300000
v 0.420000 -0.380000 0.460000
v 0.420000 0.140000 -0.420000
v 0.420000 0.060000 -0.260000
v 0.420000 -0.380000 0.420000
v 0.420000 0.140000 -0.460000
v 0.420000 0.180000 -0.420000
v 0.420000 -0.380000 0.300000
v 0.420000 -0.380000 -0.460000
v 0.420000 -0.460000 0.420000
v 0.420000 -0.380000 -0.420000
v 0.420000 -0.460000 -0.420000
v 0.420000 -0.380000 -0.300000
v -0.500000 0.300000 0.140000
v -0.500000 0.340000 0.140000
v -0.500000 0.260000 0.100000
v -0.500000 0.260000 -0.100000
v -0.500000 0.220000 0.180000
v -0.500000 0.340000 -0.140000
v -0.500000 0.060000 0.100000
v -0.500000 0.300000 0.180000
v -0.500000 0.300000 -0.140000
v -0.500000 0.100000 0.180000
v -0.500000 0.220000 -0.180000
v -0.500000 0.020000 0.140000
v -0.500000 0.100000 0.260000
v -0.500000 0.300000 -0.180000
v -0.500000 0.060000 -0.100000
v -0.500000 -0.020000 0.140000
v -0.500000 0.020000 0.180000
v -0.500000 0.220000 0.380000
v -0.500000 0.100000 -0.180000
v -0.500000 -0.020000 -0.140000
v -0.500000 0.180000 0.380000
v -0.500000 0.020000 -0.140000
v -0.500000 0.100000 -0.260000
v -0.500000 0.060000 0.300000
v -0.500000 0.020000 -0.180000
v -0.500000 0.220000 -0.380000
v -0.500000 0.060000 0.260000
v -0.500000 0.140000 0.420000
v -0.500000 0.180000 -0.380000
v -0.500000 0.180000 0.420000
v -0.500000 0.140000 0.460000
v -0.500000 0.060000 -0.300000
v -0.500000 -0.380000 0.460000
v -0.500000 0.140000 -0.420000
v -0.500000 0.060000 -0.260000
v -0.500000 -0.380000 0.300000
v -0.500000 0.140000 -0.460000
v -0.500000 0.180000 -0.420000
v -0.500000 -0.460000 0.500000
v -0.500000 -0.380000 -0.460000
v -0.500000 -0.380000 -0.300000
v -0.500000 -0.380000 0.500000
v -0.500000 -0.460000 -0.500000
v -0.500000 -0.380000 -0.500000
v 0.500000 0.300000 0.140000
v 0.500000 0.340000 0.140000
v 0.500000 0.260000 0.100000
v 0.500000 0.260000 -0.100000
v 0.500000 0.220000 0.180000
v 0.500000 0.340000 -0.140000
v 0.500000 0.060000 0.100000
v 0.500000 0.300000 0.180000
v 0.500000 0.300000 -0.140000
v 0.500000 0.100000 0.180000
v 0.500000 0.220000 -0.180000
v 0.500000 0.020000 0.140000
v 0.500000 0.100000 0.260000
v 0.500000 0.300000 -0.180000
v 0.500000 0.060000 -0.100000
v 0.500000 -0.020000 0.140000
v 0.500000 0.020000 0.180000
v 0.500000 0.220000 0.380000
v 0.500000 0.100000 -0.180000
v 0.500000 -0.020000 -0.140000
v 0.500000 0.180000 0.380000
v 0.500000 0.020000 -0.140000
v 0.500000 0.100000 -0.260000
v 0.500000 0.060000 0.300000
v 0.500000 0.020000 -0.180000
v 0.500000 0.220000 -0.380000
v 0.500000 0.060000 0.260000
v 0.500000 0.140000 0.420000
v 0.500000 0.180000 -0.380000
v 0.500000 0.180000 0.420000
v 0.500000 0.140000 0.460000
v 0.500000 0.060000 -0.300000
v 0.500000 -0.380000 0.460000
v 0.500000 0.140000 -0.420000
v 0.500000 0.060000 -0.260000
v 0.500000 -0.380000 0.300000
v 0.500000 0.140000 -0.460000
v 0.500000 0.180000 -0.420000
v 0.500000 -0.460000 0.500000
v 0.500000 -0.380000 -0.460000
v 0.500000 -0.380000 -0.300000
v 0.500000 -0.380000 0.500000
v 0.500000 -0.460000 -0.500000
v 0.500000 -0.380000 -0.500000
v -0.420000 0.300000 0.140000
v -0.420000 0.340000 0.140000
v -0.420000 0.260000 0.100000
v -0.420000 0.260000 -0.100000
v -0.420000 0.220000 0.180000
v -0.420000 0.340000 -0.140000
v -0.420000 0.060000 0.100000
v -0.420000 0.300000 0.180000
v -0.420000 0.300000 -0.140000
v -0.420000 0.100000 0.180000
v -0.420000 0.220000 -0.180000
v -0.420000 0.020000 0.140000
v -0.420000 0.100000 0.260000
v -0.420000 0.300000 -0.180000
v -0.420000 0.060000 -0.100000
v -0.420000 -0.020000 0.140000
v -0.420000 0.020000 0.180000
v -0.420000 0.220000 0.380000
v -0.420000 0.100000 -0.180000
v -0.420000 -0.020000 -0.140000
v -0.420000 0.180000 0.380000
v -0.420000 0.020000 -0.140000
v -0.420000 0.100000 -0.260000
v -0.420000 0.060000 0.300000
v -0.420000 0.020000 -0.180000
v -0.420000 0.220000 -0.380000
v -0.420000 0.060000 0.260000
v -0.420000 0.140000 0.420000
v -0.420000 0.180000 -0.380000
v -0.420000 0.180000 0.420000
v -0.420000 0.140000 0.460000
v -0.420000 0.060000 -0.300000
v -0.420000 -0.380000 0.460000
v -0.420000 0.140000 -0.420000
v -0.420000 0.060000 -0.260000
v -0.420000 -0.380000 0.420000
v -0.420000 0.140000 -0.460000
v -0.420000 0.180000 -0.420000
v -0.420000 -0.380000 0.300000
v -0.420000 -0.380000 -0.460000
v -0.420000 -0.460000 0.420000
v -0.420000 -0.380000 -0.420000
v -0.420000 -0.460000 -0.420000
v -0.420000 -0.380000 -0.300000
vt 0.000707 0.999293
vt 0.998586 0.999293
vt 0.000707 0.001414
vn -1.000000 0.000000 0.000000
vn 1.000000 0.000000 0.000000
vn 0.000000 -1.000000 -0.000000
vn 0.000000 1.000000 0.000000
vn 0.000000 0.000000 1.000000
vn 0.000000 0.000000 -1.000000

s off
f 1/1/1 2/2/1 3/3/1
f 3/1/1 2/2/1 4/3/1
f 5/1/1 1/2/1 3/3/1
f 4/1/1 2/2/1 6/3/1
f 5/1/1 3/2/1 7/3/1
f 5/1/1 8/2/1 1/3/1
f 4/1/1 6/2/1 9/3/1
f 10/1/1 5/2/1 7/3/1
f 4/1/1 9/2/1 11/3/1
f 10/1/1 7/2/1 12/3/1
f 5/1/1 10/2/1 13/3/1
f 9/1/1 14/2/1 11/3/1
f 4/1/1 11/2/1 15/3/1
f 16/1/1 12/2/1 7/3/1
f 10/1/1 12/2/1 17/3/1
f 18/1/1 5/2/1 13/3/1
f 11/1/1 19/2/1 15/3/1
f 16/1/1 7/2/1 20/3/1
f 21/1/1 18/2/1 13/3/1
f 15/1/1 19/2/1 22/3/1
f 11/1/1 23/2/1 19/3/1
f 20/1/1 7/2/1 15/3/1
f 24/1/1 21/2/1 13/3/1
f 19/1/1 25/2/1 22/3/1
f 22/1/1 20/2/1 15/3/1
f 23/1/1 11/2/1 26/3/1
f 13/1/1 27/2/1 24/3/1
f 24/1/1 28/2/1 21/3/1
f 26/1/1 29/2/1 23/3/1
f 28/1/1 30/2/1 21/3/1
f 31/1/1 28/2/1 24/3/1
f 23/1/1 29/2/1 32/3/1
f 31/1/1 24/2/1 33/3/1
f 29/1/1 34/2/1 32/3/1
f 23/1/1 32/2/1 35/3/1
f 24/1/1 36/2/1 33/3/1
f 32/1/1 34/2/1 37/3/1
f 29/1/1 38/2/1 34/3/1
f 24/1/1 39/2/1 36/3/1
f 40/1/1 32/2/1 37/3/1
f 41/1/1 36/2/1 39/3/1
f 42/1/1 32/2/1 40/3/1
f 41/1/1 39/2/1 43/3/1
f 32/1/1 42/2/1 44/3/1
f 39/1/1 44/2/1 43/3/1
f 44/1/1 42/2/1 43/3/1
f 45/1/1 46/2/1 47/3/1
f 47/1/1 46/2/1 48/3/1
f 49/1/1 45/2/1 47/3/1
f 48/1/1 46/2/1 50/3/1
f 49/1/1 47/2/1 51/3/1
f 49/1/1 52/2/1 45/3/1
f 48/1/1 50/2/1 53/3/1
f 54/1/1 49/2/1 51/3/1
f 48/1/1 53/2/1 55/3/1
f 54/1/1 51/2/1 56/3/1
f 49/1/1 54/2/1 57/3/1
f 53/1/1 58/2/1 55/3/1
f 48/1/1 55/2/1 59/3/1
f 60/1/1 56/2/1 51/3/1
f 54/1/1 56/2/1 61/3/1
f 62/1/1 49/2/1 57/3/1
f 55/1/1 63/2/1 59/3/1
f 60/1/1 51/2/1 64/3/1
f 65/1/1 62/2/1 57/3/1
f 59/1/1 63/2/1 66/3/1
f 55/1/1 67/2/1 63/3/1
f 64/1/1 51/2/1 59/3/1
f 68/1/1 65/2/1 57/3/1
f 63/1/1 69/2/1 66/3/1
f 66/1/1 64/2/1 59/3/1
f 67/1/1 55/2/1 70/3/1
f 57/1/1 71/2/1 68/3/1
f 68/1/1 72/2/1 65/3/1
f 70/1/1 73/2/1 67/3/1
f 72/1/1 74/2/1 65/3/1
f 75/1/1 72/2/1 68/3/1
f 67/1/1 73/2/1 76/3/1
f 75/1/1 68/2/1 77/3/1
f 73/1/1 78/2/1 76/3/1
f 67/1/1 76/2/1 79/3/1
f 68/1/1 80/2/1 77/3/1
f 76/1/1 78/2/1 81/3/1
f 73/1/1 82/2/1 78/3/1
f 83/1/1 77/2/1 80/3/1
f 84/1/1 76/2/1 81/3/1
f 85/1/1 83/2/1 80/3/1
f 83/1/1 86/2/1 77/3/1
f 76/1/1 84/2/1 85/3/1
f 85/1/1 87/2/1 83/3/1
f 85/1/1 84/2/1 87/3/1
f 84/1/1 88/2/1 87/3/1
f 90/2/2 89/1/2 91/3/2
f 90/2/2 91/1/2 92/3/2
f 89/2/2 93/1/2 91/3/2
f 90/2/2 92/1/2 94/3/2
f 91/2/2 93/1/2 95/3/2
f 96/2/2 93/1/2 89/3/2
f 94/2/2 92/1/2 97/3/2
f 93/2/2 98/1/2 95/3/2
f 97/2/2 92/1/2 99/3/2
f 95/2/2 98/1/2 100/3/2
f 98/2/2 93/1/2 101/3/2
f 102/2/2 97/1/2 99/3/2
f 99/2/2 92/1/2 103/3/2
f 100/2/2 104/1/2 95/3/2
f 100/2/2 98/1/2 105/3/2
f 93/2/2 106/1/2 101/3/2
f 107/2/2 99/1/2 103/3/2
f 95/2/2 104/1/2 108/3/2
f 106/2/2 109/1/2 101/3/2
f 107/2/2 103/1/2 110/3/2
f 111/2/2 99/1/2 107/3/2
f 95/2/2 108/1/2 103/3/2
f 109/2/2 112/1/2 101/3/2
f 113/2/2 107/1/2 110/3/2
f 108/2/2 110/1/2 103/3/2
f 99/2/2 111/1/2 114/3/2
f 115/2/2 101/1/2 112/3/2
f 116/2/2 112/1/2 109/3/2
f 117/2/2 114/1/2 111/3/2
f 118/2/2 116/1/2 109/3/2
f 116/2/2 119/1/2 112/3/2
f 117/2/2 111/1/2 120/3/2
f 112/2/2 119/1/2 121/3/2
f 122/2/2 117/1/2 120/3/2
f 120/2/2 111/1/2 123/3/2
f 124/2/2 112/1/2 121/3/2
f 122/2/2 120/1/2 125/3/2
f 126/2/2 117/1/2 122/3/2
f 121/2/2 127/1/2 124/3/2
f 120/2/2 128/1/2 125/3/2
f 127/2/2 129/1/2 124/3/2
f 130/2/2 127/1/2 121/3/2
f 128/2/2 120/1/2 129/3/2
f 131/2/2 129/1/2 127/3/2
f 128/2/2 129/1/2 131/3/2
f 132/2/2 128/1/2 131/3/2
f 134/2/2 133/1/2 135/3/2
f 134/2/2 135/1/2 136/3/2
f 133/2/2 137/1/2 135/3/2
f 134/2/2 136/1/2 138/3/2
f 135/2/2 137/1/2 139/3/2
f 140/2/2 137/1/2 133/3/2
f 138/2/2 136/1/2 141/3/2
f 137/2/2 142/1/2 139/3/2
f 141/2/2 136/1/2 143/3/2
f 139/2/2 142/1/2 144/3/2
f 142/2/2 137/1/2 145/3/2
f 146/2/2 141/1/2 143/3/2
f 143/2/2 136/1/2 147/3/2
f 144/2/2 148/1/2 139/3/2
f 144/2/2 142/1/2 149/3/2
f 137/2/2 150/1/2 145/3/2
f 151/2/2 143/1/2 147/3/2
f 139/2/2 148/1/2 152/3/2
f 150/2/2 153/1/2 145/3/2
f 151/2/2 147/1/2 154/3/2
f 155/2/2 143/1/2 151/3/2
f 139/2/2 152/1/2 147/3/2
f 153/2/2 156/1/2 145/3/2
f 157/2/2 151/1/2 154/3/2
f 152/2/2 154/1/2 147/3/2
f 143/2/2 155/1/2 158/3/2
f 159/2/2 145/1/2 156/3/2
f 160/2/2 156/1/2 153/3/2
f 161/2/2 158/1/2 155/3/2
f 162/2/2 160/1/2 153/3/2
f 160/2/2 163/1/2 156/3/2
f 161/2/2 155/1/2 164/3/2
f 156/2/2 163/1/2 165/3/2
f 166/2/2 161/1/2 164/3/2
f 164/2/2 155/1/2 167/3/2
f 168/2/2 156/1/2 165/3/2
f 166/2/2 164/1/2 169/3/2
f 170/2/2 161/1/2 166/3/2
f 171/2/2 156/1/2 168/3/2
f 164/2/2 172/1/2 169/3/2
f 168/2/2 173/1/2 171/3/2
f 164/2/2 174/1/2 172/3/2
f 171/2/2 173/1/2 175/3/2
f 174/2/2 164/1/2 176/3/2
f 176/2/2 171/1/2 175/3/2
f 174/2/2 176/1/2 175/3/2
f 41/2/3 127/1/3 83/3/3
f 173/2/3 41/1/3 83/3/3
f 131/2/3 127/1/3 41/3/3
f 87/2/3 173/1/3 83/3/3
f 43/2/3 131/1/3 41/3/3
f 175/2/3 173/1/3 87/3/3
f 131/2/3 43/1/3 87/3/3
f 43/2/3 175/1/3 87/3/3
f 10/2/3 101/1/3 13/3/3
f 98/2/3 101/1/3 10/3/3
f 23/2/3 107/1/3 19/3/3
f 111/2/3 107/1/3 23/3/3
f 67/2/3 151/1/3 63/3/3
f 155/2/3 151/1/3 67/3/3
f 54/2/3 145/1/3 57/3/3
f 142/2/3 145/1/3 54/3/3
f 27/2/3 112/1/3 24/3/3
f 115/2/3 112/1/3 27/3/3
f 32/2/3 123/1/3 35/3/3
f 120/2/3 123/1/3 32/3/3
f 76/2/3 167/1/3 79/3/3
f 164/2/3 167/1/3 76/3/3
f 71/2/3 156/1/3 68/3/3
f 159/2/3 156/1/3 71/3/3
f 12/2/3 105/1/3 17/3/3
f 100/2/3 105/1/3 12/3/3
f 25/2/3 110/1/3 22/3/3
f 113/2/3 110/1/3 25/3/3
f 69/2/3 154/1/3 66/3/3
f 157/2/3 154/1/3 69/3/3
f 56/2/3 149/1/3 61/3/3
f 144/2/3 149/1/3 56/3/3
f 20/2/3 104/1/3 16/3/3
f 108/2/3 104/1/3 20/3/3
f 64/2/3 148/1/3 60/3/3
f 152/2/3 148/1/3 64/3/3
f 4/2/3 91/1/3 3/3/3
f 92/2/3 91/1/3 4/3/3
f 48/2/3 135/1/3 47/3/3
f 136/2/3 135/1/3 48/3/3
f 106/1/4 5/2/4 18/3/4
f 106/1/4 93/2/4 5/3/4
f 99/1/4 26/2/4 11/3/4
f 99/1/4 114/2/4 26/3/4
f 143/1/4 70/2/4 55/3/4
f 143/1/4 158/2/4 70/3/4
f 150/1/4 49/2/4 62/3/4
f 150/1/4 137/2/4 49/3/4
f 118/1/4 21/2/4 30/3/4
f 118/1/4 109/2/4 21/3/4
f 117/1/4 38/2/4 29/3/4
f 117/1/4 126/2/4 38/3/4
f 161/1/4 82/2/4 73/3/4
f 161/1/4 170/2/4 82/3/4
f 162/1/4 65/2/4 74/3/4
f 162/1/4 153/2/4 65/3/4
f 119/1/4 28/2/4 31/3/4
f 119/1/4 116/2/4 28/3/4
f 122/1/4 37/2/4 34/3/4
f 122/1/4 125/2/4 37/3/4
f 166/1/4 81/2/4 78/3/4
f 166/1/4 169/2/4 81/3/4
f 163/1/4 72/2/4 75/3/4
f 163/1/4 160/2/4 72/3/4
f 95/1/4 15/2/4 7/3/4
f 95/1/4 103/2/4 15/3/4
f 139/1/4 59/2/4 51/3/4
f 139/1/4 147/2/4 59/3/4
f 90/1/4 6/2/4 2/3/4
f 90/1/4 94/2/4 6/3/4
f 134/1/4 50/2/4 46/3/4
f 134/1/4 138/2/4 50/3/4
f 96/1/4 1/2/4 8/3/4
f 96/1/4 89/2/4 1/3/4
f 97/1/4 14/2/4 9/3/4
f 97/1/4 102/2/4 14/3/4
f 141/1/4 58/2/4 53/3/4
f 141/1/4 146/2/4 58/3/4
f 140/1/4 45/2/4 52/3/4
f 140/1/4 133/2/4 45/3/4
f 130/1/4 33/2/4 86/3/4
f 33/1/4 165/2/4 86/3/4
f 130/1/4 121/2/4 33/3/4
f 165/1/4 77/2/4 86/3/4
f 33/1/4 168/2/4 165/3/4
f 33/1/4 36/2/4 168/3/4
f 124/1/4 44/2/4 39/3/4
f 124/1/4 129/2/4 44/3/4
f 40/1/4 128/2/4 132/3/4
f 88/1/4 40/2/4 132/3/4
f 172/1/4 40/2/4 88/3/4
f 172/1/4 88/2/4 84/3/4
f 42/1/4 40/2/4 172/3/4
f 42/1/4 172/2/4 174/3/4
f 171/1/4 85/2/4 80/3/4
f 171/1/4 176/2/4 85/3/4
f 104/1/5 12/2/5 16/3/5
f 104/1/5 100/2/5 12/3/5
f 89/1/5 2/2/5 1/3/5
f 89/1/5 90/2/5 2/3/5
f 133/1/5 46/2/5 45/3/5
f 133/1/5 134/2/5 46/3/5
f 148/1/5 56/2/5 60/3/5
f 148/1/5 144/2/5 56/3/5
f 105/1/5 10/2/5 17/3/5
f 105/1/5 98/2/5 10/3/5
f 93/1/5 8/2/5 5/3/5
f 93/1/5 96/2/5 8/3/5
f 137/1/5 52/2/5 49/3/5
f 137/1/5 140/2/5 52/3/5
f 149/1/5 54/2/5 61/3/5
f 149/1/5 142/2/5 54/3/5
f 43/1/5 174/2/5 175/3/5
f 43/1/5 42/2/5 174/3/5
f 129/1/5 32/2/5 44/3/5
f 129/1/5 120/2/5 32/3/5
f 176/1/5 76/2/5 85/3/5
f 176/1/5 164/2/5 76/3/5
f 109/1/5 18/2/5 21/3/5
f 109/1/5 106/2/5 18/3/5
f 153/1/5 62/2/5 65/3/5
f 153/1/5 150/2/5 62/3/5
f 123/1/5 23/2/5 35/3/5
f 123/1/5 111/2/5 23/3/5
f 167/1/5 67/2/5 79/3/5
f 167/1/5 155/2/5 67/3/5
f 116/1/5 30/2/5 28/3/5
f 116/1/5 118/2/5 30/3/5
f 160/1/5 74/2/5 72/3/5
f 160/1/5 162/2/5 74/3/5
f 121/1/5 31/2/5 33/3/5
f 121/1/5 119/2/5 31/3/5
f 165/1/5 75/2/5 77/3/5
f 165/1/5 163/2/5 75/3/5
f 127/1/5 86/2/5 83/3/5
f 127/1/5 130/2/5 86/3/5
f 103/1/5 4/2/5 15/3/5
f 103/1/5 92/2/5 4/3/5
f 147/1/5 48/2/5 59/3/5
f 147/1/5 136/2/5 48/3/5
f 3/2/6 95/1/6 7/3/6
f 91/2/6 95/1/6 3/3/6
f 47/2/6 139/1/6 51/3/6
f 135/2/6 139/1/6 47/3/6
f 88/2/6 131/1/6 87/3/6
f 132/2/6 131/1/6 88/3/6
f 37/2/6 128/1/6 40/3/6
f 125/2/6 128/1/6 37/3/6
f 81/2/6 172/1/6 84/3/6
f 169/2/6 172/1/6 81/3/6
f 38/2/6 122/1/6 34/3/6
f 126/2/6 122/1/6 38/3/6
f 82/2/6 166/1/6 78/3/6
f 170/2/6 166/1/6 82/3/6
f 26/2/6 117/1/6 29/3/6
f 114/2/6 117/1/6 26/3/6
f 70/2/6 161/1/6 73/3/6
f 158/2/6 161/1/6 70/3/6
f 13/2/6 115/1/6 27/3/6
f 101/2/6 115/1/6 13/3/6
f 57/2/6 159/1/6 71/3/6
f 145/2/6 159/1/6 57/3/6
f 24/2/6 124/1/6 39/3/6
f 112/2/6 124/1/6 24/3/6
f 68/2/6 171/1/6 80/3/6
f 156/2/6 171/1/6 68/3/6
f 168/2/6 41/1/6 173/3/6
f 36/2/6 41/1/6 168/3/6
f 19/2/6 113/1/6 25/3/6
f 107/2/6 113/1/6 19/3/6
f 14/2/6 99/1/6 11/3/6
f 102/2/6 99/1/6 14/3/6
f 58/2/6 143/1/6 55/3/6
f 146/2/6 143/1/6 58/3/6
f 63/2/6 157/1/6 69/3/6
f 151/2/6 157/1/6 63/3/6
f 22/2/6 108/1/6 20/3/6
f 110/2/6 108/1/6 22/3/6
f 6/2/6 97/1/6 9/3/6
f 94/2/6 97/1/6 6/3/6
f 50/2/6 141/1/6 53/3/6
f 138/2/6 141/1/6 50/3/6
f 66/2/6 152/1/6 64/3/6
f 154/2/6 152/1/6 66/3/6
